<svg width="10" height="12" viewBox="0 0 10 12" fill="none" xmlns="http://www.w3.org/2000/svg">
    <path d="M8.9375 0H1.0625C0.751836 0 0.5 0.251836 0.5 0.5625V0.9375C0.5 1.24816 0.751836 1.5 1.0625 1.5C1.0625 3.63199 2.25819 5.43127 3.89473 6C2.25819 6.56873 1.0625 8.36801 1.0625 10.5C0.751836 10.5 0.5 10.7518 0.5 11.0625V11.4375C0.5 11.7482 0.751836 12 1.0625 12H8.9375C9.24816 12 9.5 11.7482 9.5 11.4375V11.0625C9.5 10.7518 9.24816 10.5 8.9375 10.5C8.9375 8.36801 7.74181 6.56873 6.10527 6C7.74181 5.43127 8.9375 3.63199 8.9375 1.5C9.24816 1.5 9.5 1.24816 9.5 0.9375V0.5625C9.5 0.251836 9.24816 0 8.9375 0ZM7.17786 9H2.82219C3.22201 7.9032 4.04319 7.125 5 7.125C5.95674 7.125 6.77802 7.90303 7.17786 9ZM7.1783 3H2.82214C2.65597 2.54409 2.5625 2.03316 2.5625 1.5H7.4375C7.4375 2.03449 7.34405 2.54501 7.1783 3Z" fill="#8B9293"/>
</svg>
