<svg width="11" height="8" viewBox="0 0 11 8" fill="none" xmlns="http://www.w3.org/2000/svg">
<path d="M5.96588 1.35801L7.50277 2.89487H0.5625C0.251836 2.89487 0 3.14671 0 3.45737V4.01987C0 4.33054 0.251836 4.58237 0.5625 4.58237H7.50277L5.96588 6.11924C5.7462 6.33892 5.7462 6.69507 5.96588 6.91473L6.36363 7.31249C6.58331 7.53217 6.93947 7.53217 7.15912 7.31249L10.3352 4.13636C10.5549 3.91668 10.5549 3.56052 10.3352 3.34087L7.15912 0.16476C6.93945 -0.0549199 6.58329 -0.0549199 6.36363 0.16476L5.96588 0.562517C5.7462 0.782173 5.7462 1.13833 5.96588 1.35801Z" fill="#4C4F50"/>
</svg>
