<svg width="18" height="15" viewBox="0 0 18 15" fill="none" 
  xmlns="http://www.w3.org/2000/svg">
  <path d="M17.1703 10.4991C17.2434 10.1025 17.2434 9.6975 17.1703 9.30094L17.8959 8.88188C17.9803 8.83406 18.0169 8.73563 17.9887 8.64281C17.8003 8.03531 17.4769 7.48406 17.055 7.02844C16.9903 6.95813 16.8862 6.94125 16.8019 6.98906L16.0762 7.40812C15.7697 7.14656 15.4181 6.94406 15.0384 6.80906V5.97094C15.0384 5.87531 14.9709 5.79094 14.8781 5.77125C14.2509 5.63063 13.6125 5.63625 13.0162 5.77125C12.9234 5.79094 12.8559 5.87531 12.8559 5.97094V6.80906C12.4762 6.94406 12.1247 7.14656 11.8181 7.40812L11.0925 6.98906C11.0109 6.94125 10.9041 6.95813 10.8394 7.02844C10.4175 7.48406 10.0941 8.03531 9.90562 8.64281C9.8775 8.73563 9.91687 8.83406 9.99844 8.88188L10.7241 9.30094C10.6509 9.6975 10.6509 10.1025 10.7241 10.4991L9.99844 10.9181C9.91406 10.9659 9.8775 11.0644 9.90562 11.1572C10.0941 11.7647 10.4175 12.3131 10.8394 12.7716C10.9041 12.8419 11.0081 12.8588 11.0925 12.8109L11.8181 12.3919C12.1247 12.6534 12.4762 12.8559 12.8559 12.9909V13.8291C12.8559 13.9247 12.9234 14.0091 13.0162 14.0288C13.6434 14.1694 14.2819 14.1638 14.8781 14.0288C14.9709 14.0091 15.0384 13.9247 15.0384 13.8291V12.9909C15.4181 12.8559 15.7697 12.6534 16.0762 12.3919L16.8019 12.8109C16.8834 12.8588 16.9903 12.8419 17.055 12.7716C17.4769 12.3159 17.8003 11.7647 17.9887 11.1572C18.0169 11.0644 17.9775 10.9659 17.8959 10.9181L17.1703 10.4991ZM13.95 11.2641C13.1962 11.2641 12.5859 10.6509 12.5859 9.9C12.5859 9.14906 13.1991 8.53594 13.95 8.53594C14.7009 8.53594 15.3141 9.14906 15.3141 9.9C15.3141 10.6509 14.7037 11.2641 13.95 11.2641ZM6.3 7.2C8.28844 7.2 9.9 5.58844 9.9 3.6C9.9 1.61156 8.28844 0 6.3 0C4.31156 0 2.7 1.61156 2.7 3.6C2.7 5.58844 4.31156 7.2 6.3 7.2ZM11.9587 13.5703C11.8941 13.5366 11.8294 13.4972 11.7675 13.4606L11.5453 13.59C11.3766 13.6856 11.1853 13.7391 10.9941 13.7391C10.6875 13.7391 10.3922 13.6097 10.1812 13.3847C9.66656 12.8278 9.27281 12.15 9.05062 11.4272C8.89594 10.9294 9.10406 10.4034 9.55406 10.1419L9.77625 10.0125C9.77344 9.93937 9.77344 9.86625 9.77625 9.79313L9.55406 9.66375C9.10406 9.405 8.89594 8.87625 9.05062 8.37844C9.07594 8.29688 9.1125 8.21531 9.14062 8.13375C9.03375 8.12531 8.92969 8.1 8.82 8.1H8.35031C7.72594 8.38688 7.03125 8.55 6.3 8.55C5.56875 8.55 4.87687 8.38688 4.24969 8.1H3.78C1.69312 8.1 0 9.79313 0 11.88V13.05C0 13.7953 0.604687 14.4 1.35 14.4H11.25C11.5341 14.4 11.7984 14.31 12.015 14.1609C11.9812 14.0541 11.9587 13.9444 11.9587 13.8291V13.5703Z" fill="#A9B0B0" />
</svg>