<svg width="14" height="14" viewBox="0 0 14 14" fill="none" 
  xmlns="http://www.w3.org/2000/svg">
  <path d="M1.84592 12.8096C0.259844 11.2233 0.259543 8.65557 1.84592 7.06901L7.99856 0.915571C9.21927 -0.30519 11.2054 -0.30519 12.4261 0.915571C13.6495 2.13918 13.6498 4.11988 12.4261 5.34373L7.24538 10.5251C6.38651 11.384 4.98903 11.384 4.13022 10.5251C3.26946 9.66429 3.26916 8.27055 4.13022 7.40947L8.51785 3.02123C8.64601 2.89307 8.85379 2.89307 8.98193 3.02123L9.44587 3.48528C9.57397 3.61341 9.57397 3.82115 9.44587 3.94928L5.05813 8.33757C4.7102 8.68549 4.71004 9.24888 5.05813 9.59697C5.40528 9.94415 5.9702 9.9442 6.31742 9.59694L11.4981 4.4156C12.2087 3.70496 12.2089 2.55458 11.4981 1.84375C10.7891 1.13462 9.6355 1.13468 8.92647 1.84375L2.77386 7.99716C1.70064 9.07046 1.70039 10.808 2.77383 11.8815C3.84803 12.9559 5.58709 12.9558 6.66107 11.8808C8.44621 10.0939 10.2317 8.30739 12.0175 6.5212C12.1456 6.39304 12.3533 6.39313 12.4815 6.52131L12.9454 6.98536C13.0735 7.1135 13.0736 7.32112 12.9455 7.44925C11.1598 9.23534 9.37446 11.0218 7.58942 12.8085C6.00255 14.397 3.43306 14.397 1.84592 12.8096Z" fill="#3A8DDE"/>
</svg>