<svg width="12" height="12" viewBox="0 0 12 12" fill="none" 
  xmlns="http://www.w3.org/2000/svg">
  <path d="M7.27275 6L11.1187 2.154L11.9119 1.36087C12.0289 1.24387 12.0289 1.05375 11.9119 0.93675L11.0632 0.0881251C10.9462 -0.0288749 10.7561 -0.0288749 10.6391 0.0881251L6 4.72725L1.36088 0.08775C1.24387 -0.02925 1.05375 -0.02925 0.93675 0.08775L0.08775 0.936375C-0.02925 1.05338 -0.02925 1.2435 0.08775 1.3605L4.72725 6L0.08775 10.6391C-0.02925 10.7561 -0.02925 10.9462 0.08775 11.0632L0.936375 11.9119C1.05337 12.0289 1.2435 12.0289 1.3605 11.9119L6 7.27275L9.846 11.1187L10.6391 11.9119C10.7561 12.0289 10.9462 12.0289 11.0632 11.9119L11.9119 11.0632C12.0289 10.9462 12.0289 10.7561 11.9119 10.6391L7.27275 6Z" fill="#A9B0B0" />
</svg>