<svg width="13" height="12" viewBox="0 0 13 12" fill="none" xmlns="http://www.w3.org/2000/svg">
<path d="M9.44444 4.5C9.44444 2.42812 7.50486 0.75 5.1111 0.75C2.71735 0.75 0.777771 2.42812 0.777771 4.5C0.777771 5.30391 1.07152 6.04453 1.56944 6.65625C1.29027 7.36406 0.829854 7.92656 0.823604 7.93359C0.777771 7.9875 0.765271 8.06719 0.792354 8.1375C0.819438 8.20781 0.877771 8.25 0.944438 8.25C1.70694 8.25 2.33819 7.96172 2.79235 7.66406C3.46319 8.03203 4.25694 8.25 5.1111 8.25C7.50486 8.25 9.44444 6.57188 9.44444 4.5ZM11.9861 9.65625C12.484 9.04688 12.7778 8.30391 12.7778 7.5C12.7778 5.93203 11.6632 4.58906 10.084 4.02891C10.1028 4.18359 10.1111 4.34063 10.1111 4.5C10.1111 6.98203 7.86736 9 5.1111 9C4.8861 9 4.66735 8.98125 4.45069 8.95547C5.10694 10.3031 6.6486 11.25 8.44444 11.25C9.2986 11.25 10.0924 11.0344 10.7632 10.6641C11.2174 10.9617 11.8486 11.25 12.6111 11.25C12.6778 11.25 12.7382 11.2055 12.7632 11.1375C12.7903 11.0695 12.7778 10.9898 12.7319 10.9336C12.7257 10.9266 12.2653 10.3664 11.9861 9.65625Z" fill="#8B9293"/>
</svg>
