<svg width="24" height="20" viewBox="0 0 24 20" fill="none" 
  xmlns="http://www.w3.org/2000/svg">
  <path d="M10.0563 14.3029L8.19635 12.0304C7.94136 11.7191 7.51386 11.6141 7.14636 11.7716L2.94638 13.5716C2.54513 13.7441 2.32763 14.1754 2.42513 14.6029L3.32513 18.5029C3.41888 18.9079 3.77888 19.2004 4.20262 19.2004C7.97885 19.2004 11.4663 17.9854 14.3163 15.9416L11.3163 13.6241C10.9076 13.8679 10.4876 14.1004 10.0563 14.3029ZM23.7663 17.1791L17.8151 12.5816C20.17 9.6154 21.5988 5.88415 21.5988 1.8004C21.5988 1.3804 21.31 1.01665 20.9013 0.922905L17.0013 0.0229055C16.5776 -0.0745944 16.1426 0.146655 15.9701 0.544155L14.1701 4.74415C14.0126 5.11165 14.1176 5.5429 14.4288 5.79415L16.7013 7.65415C16.2438 8.6329 15.6551 9.5404 14.9763 10.3841L1.70514 0.127905C1.44264 -0.0745944 1.06764 -0.0295945 0.861391 0.232905L0.126395 1.1779C-0.0761039 1.4404 -0.0311042 1.8154 0.231394 2.0179L22.2963 19.0691C22.5588 19.2716 22.9338 19.2266 23.14 18.9641L23.875 18.0154C24.0775 17.7604 24.0288 17.3816 23.7663 17.1791Z" fill="#1C3E55"/>
</svg>