<svg width="12" height="12" viewBox="0 0 12 12" fill="none" 
  xmlns="http://www.w3.org/2000/svg">
  <path d="M6 1.5C3.09984 1.5 0.75 3.85055 0.75 6.75C0.749472 7.88296 1.11761 8.98533 1.79883 9.89062L0.858984 10.8302C0.824153 10.8651 0.796523 10.9064 0.777673 10.9519C0.758822 10.9974 0.749119 11.0462 0.749119 11.0954C0.749119 11.1447 0.758822 11.1935 0.777673 11.239C0.796523 11.2845 0.824153 11.3258 0.858984 11.3606L1.38937 11.8908C1.45969 11.9611 1.55504 12.0005 1.65445 12.0005C1.75387 12.0005 1.84921 11.9611 1.91953 11.8908L2.85938 10.9505C3.76464 11.6319 4.86695 12.0004 6 12.0004C7.13305 12.0004 8.23536 11.6319 9.14062 10.9505L10.0805 11.8901C10.1153 11.9249 10.1566 11.9525 10.2021 11.9714C10.2476 11.9902 10.2964 11.9999 10.3457 11.9999C10.3949 11.9999 10.4437 11.9902 10.4892 11.9714C10.5347 11.9525 10.576 11.9249 10.6109 11.8901L11.141 11.3599C11.1758 11.3251 11.2035 11.2838 11.2223 11.2383C11.2412 11.1927 11.2509 11.144 11.2509 11.0947C11.2509 11.0455 11.2412 10.9967 11.2223 10.9512C11.2035 10.9057 11.1758 10.8644 11.141 10.8295L10.2002 9.89062C10.8818 8.98544 11.2502 7.88307 11.25 6.75C11.25 3.85055 8.89922 1.5 6 1.5ZM6 10.875C5.18415 10.875 4.38663 10.6331 3.70827 10.1798C3.02992 9.72655 2.50121 9.08231 2.189 8.32857C1.87679 7.57482 1.7951 6.74542 1.95426 5.94525C2.11342 5.14508 2.50629 4.41008 3.08318 3.83318C3.66008 3.25629 4.39508 2.86342 5.19525 2.70426C5.99542 2.5451 6.82482 2.62679 7.57857 2.939C8.33231 3.25121 8.97655 3.77992 9.42981 4.45827C9.88307 5.13663 10.125 5.93415 10.125 6.75C10.125 7.84402 9.6904 8.89323 8.91682 9.66682C8.14323 10.4404 7.09402 10.875 6 10.875ZM2.25 0C1.65326 0 1.08097 0.237053 0.65901 0.65901C0.237053 1.08097 0 1.65326 0 2.25C0.00173291 2.67659 0.12622 3.09366 0.358594 3.45141L3.77812 0.601875C3.36325 0.215126 2.81718 4.79565e-05 2.25 0ZM6.5625 6.85477V3.9375C6.5625 3.88777 6.54275 3.84008 6.50758 3.80492C6.47242 3.76975 6.42473 3.75 6.375 3.75H5.625C5.57527 3.75 5.52758 3.76975 5.49242 3.80492C5.45725 3.84008 5.4375 3.88777 5.4375 3.9375V7.035C5.43743 7.14751 5.46267 7.25859 5.51136 7.36002C5.56004 7.46145 5.63092 7.55062 5.71875 7.62094L7.23141 8.82961C7.27076 8.85949 7.31973 8.87384 7.36898 8.86992C7.41828 8.86437 7.46337 8.83951 7.49438 8.80078L7.96313 8.21484C7.9786 8.1956 7.99012 8.17349 7.99702 8.14978C8.00393 8.12607 8.00608 8.10123 8.00336 8.07669C8.00063 8.05214 7.99309 8.02838 7.98116 8.00676C7.96923 7.98514 7.95314 7.96609 7.93383 7.9507L6.5625 6.85477ZM9.75 0C9.18306 0.000109254 8.63721 0.214999 8.22234 0.601406L11.6416 3.4507C11.8738 3.09311 11.9981 2.67632 12 2.25C12 1.65326 11.7629 1.08097 11.341 0.65901C10.919 0.237053 10.3467 0 9.75 0V0Z" fill="#9384BD" />
</svg>