<svg width="13" height="13" viewBox="0 0 13 13" fill="none" xmlns="http://www.w3.org/2000/svg">
<path d="M0.8125 11.7812C0.8125 12.4541 1.3584 13 2.03125 13H10.9687C11.6416 13 12.1875 12.4541 12.1875 11.7812V4.875H0.8125V11.7812ZM8.9375 6.80469C8.9375 6.63711 9.07461 6.5 9.24219 6.5H10.2578C10.4254 6.5 10.5625 6.63711 10.5625 6.80469V7.82031C10.5625 7.98789 10.4254 8.125 10.2578 8.125H9.24219C9.07461 8.125 8.9375 7.98789 8.9375 7.82031V6.80469ZM8.9375 10.0547C8.9375 9.88711 9.07461 9.75 9.24219 9.75H10.2578C10.4254 9.75 10.5625 9.88711 10.5625 10.0547V11.0703C10.5625 11.2379 10.4254 11.375 10.2578 11.375H9.24219C9.07461 11.375 8.9375 11.2379 8.9375 11.0703V10.0547ZM5.6875 6.80469C5.6875 6.63711 5.82461 6.5 5.99219 6.5H7.00781C7.17539 6.5 7.3125 6.63711 7.3125 6.80469V7.82031C7.3125 7.98789 7.17539 8.125 7.00781 8.125H5.99219C5.82461 8.125 5.6875 7.98789 5.6875 7.82031V6.80469ZM5.6875 10.0547C5.6875 9.88711 5.82461 9.75 5.99219 9.75H7.00781C7.17539 9.75 7.3125 9.88711 7.3125 10.0547V11.0703C7.3125 11.2379 7.17539 11.375 7.00781 11.375H5.99219C5.82461 11.375 5.6875 11.2379 5.6875 11.0703V10.0547ZM2.4375 6.80469C2.4375 6.63711 2.57461 6.5 2.74219 6.5H3.75781C3.92539 6.5 4.0625 6.63711 4.0625 6.80469V7.82031C4.0625 7.98789 3.92539 8.125 3.75781 8.125H2.74219C2.57461 8.125 2.4375 7.98789 2.4375 7.82031V6.80469ZM2.4375 10.0547C2.4375 9.88711 2.57461 9.75 2.74219 9.75H3.75781C3.92539 9.75 4.0625 9.88711 4.0625 10.0547V11.0703C4.0625 11.2379 3.92539 11.375 3.75781 11.375H2.74219C2.57461 11.375 2.4375 11.2379 2.4375 11.0703V10.0547ZM10.9687 1.625H9.75V0.40625C9.75 0.182812 9.56719 0 9.34375 0H8.53125C8.30781 0 8.125 0.182812 8.125 0.40625V1.625H4.875V0.40625C4.875 0.182812 4.69219 0 4.46875 0H3.65625C3.43281 0 3.25 0.182812 3.25 0.40625V1.625H2.03125C1.3584 1.625 0.8125 2.1709 0.8125 2.84375V4.0625H12.1875V2.84375C12.1875 2.1709 11.6416 1.625 10.9687 1.625Z" fill="#1C3E55"/>
</svg>
