<svg width="14" height="14" viewBox="0 0 14 14" fill="none" 
  xmlns="http://www.w3.org/2000/svg">
  <path d="M6.99998 6.25002V3.28111C6.99998 2.61292 7.80783 2.2783 8.28033 2.75077L9.14608 3.61652L12.6527 0.109859C12.7992 -0.0365789 13.0366 -0.0365789 13.1831 0.109859L13.8902 0.816953C14.0366 0.963391 14.0366 1.20083 13.8902 1.3473L10.3835 4.85396L11.2492 5.71971C11.7217 6.19218 11.3871 7.00002 10.7189 7.00002H7.74998C7.33577 7.00002 6.99998 6.66424 6.99998 6.25002ZM1.34723 13.8902L4.85389 10.3835L5.71964 11.2493C6.19214 11.7217 6.99998 11.3871 6.99998 10.7189V7.75002C6.99998 7.3358 6.6642 7.00002 6.24998 7.00002H3.28108C2.61289 7.00002 2.27827 7.80787 2.75073 8.28037L3.61648 9.14612L0.109828 12.6528C-0.0366094 12.7992 -0.0366094 13.0367 0.109828 13.1831L0.816922 13.8902C0.963359 14.0367 1.2008 14.0367 1.34723 13.8902Z" fill="#A9B0B0"/>
</svg>