<svg width="10" height="14" viewBox="0 0 10 14" fill="none" xmlns="http://www.w3.org/2000/svg">
<path d="M1 0.3H3C3.3865 0.3 3.7 0.613498 3.7 1V3C3.7 3.3865 3.3865 3.7 3 3.7H1C0.613498 3.7 0.3 3.3865 0.3 3V1C0.3 0.613498 0.613498 0.3 1 0.3ZM1 5.3H3C3.3865 5.3 3.7 5.6135 3.7 6V8C3.7 8.3865 3.3865 8.7 3 8.7H1C0.613498 8.7 0.3 8.3865 0.3 8V6C0.3 5.6135 0.613498 5.3 1 5.3ZM1 10.3H3C3.3865 10.3 3.7 10.6135 3.7 11V13C3.7 13.3865 3.3865 13.7 3 13.7H1C0.613498 13.7 0.3 13.3865 0.3 13V11C0.3 10.6135 0.613498 10.3 1 10.3ZM7 0.3H9C9.3865 0.3 9.7 0.613498 9.7 1V3C9.7 3.3865 9.3865 3.7 9 3.7H7C6.6135 3.7 6.3 3.3865 6.3 3V1C6.3 0.613498 6.6135 0.3 7 0.3ZM7 5.3H9C9.3865 5.3 9.7 5.6135 9.7 6V8C9.7 8.3865 9.3865 8.7 9 8.7H7C6.6135 8.7 6.3 8.3865 6.3 8V6C6.3 5.6135 6.6135 5.3 7 5.3ZM7 10.3H9C9.3865 10.3 9.7 10.6135 9.7 11V13C9.7 13.3865 9.3865 13.7 9 13.7H7C6.6135 13.7 6.3 13.3865 6.3 13V11C6.3 10.6135 6.6135 10.3 7 10.3Z" fill="#D3D6D7" stroke="white" stroke-width="0.6"/>
</svg>
