<svg width="11" height="10" viewBox="0 0 11 10" fill="none" xmlns="http://www.w3.org/2000/svg">
<path d="M5.48527 9.29214C4.15116 9.29214 2.81706 9.28043 1.48295 9.298C1.02536 9.30582 0.642961 9.01091 0.683779 8.57345C0.711707 8.26292 0.675186 7.94849 0.696669 7.63796C0.707411 7.48368 0.750377 7.31572 0.834161 7.18097C1.56674 5.99941 2.30791 4.82176 3.05337 3.64802C3.28969 3.27695 3.66135 3.06212 4.12753 3.05235C5.04271 3.03478 5.9579 3.03282 6.87093 3.05235C7.33712 3.06212 7.70878 3.2789 7.94294 3.64997C8.68841 4.82371 9.42958 6.00136 10.1622 7.18292C10.2459 7.31768 10.2889 7.48563 10.2975 7.63992C10.3168 7.96802 10.3039 8.29807 10.3039 8.62618C10.3018 9.0363 10.0333 9.28628 9.58211 9.28824C8.33823 9.29019 7.09221 9.28824 5.84833 9.28824C5.72588 9.29214 5.60557 9.29214 5.48527 9.29214ZM3.97285 6.02089C3.95996 6.69858 4.54645 7.39775 5.49816 7.40361C6.34674 7.40947 7.01917 6.78646 7.01917 6.01503C7.01917 5.24165 6.35748 4.62255 5.50245 4.62451C4.5529 4.62646 3.95137 5.32758 3.97285 6.02089Z" fill="#1C3E55"/>
<path d="M9.88717 3.98978C9.653 3.98978 9.41669 3.98783 9.18252 3.98978C8.98917 3.99174 8.86027 3.91752 8.78938 3.74761C8.62826 3.35897 8.46713 2.97032 8.28667 2.58754C8.24585 2.4977 8.14488 2.40396 8.04606 2.37076C7.40371 2.14226 6.72914 2.01922 6.04168 1.98407C5.07279 1.93719 4.11464 2.01531 3.18012 2.28287C2.89869 2.36295 2.70534 2.47817 2.61512 2.75354C2.5034 3.08946 2.33798 3.4117 2.20264 3.74176C2.1296 3.91752 1.9964 3.99369 1.79446 3.99174C1.32398 3.98978 0.853495 3.99369 0.385162 3.98978C0.127364 3.98588 0.00705831 3.87261 0.00491 3.63434C0.00276168 3.29452 -0.00797991 2.95275 0.0113549 2.61293C0.0177999 2.50551 0.0801011 2.3649 0.17033 2.30436C0.591401 2.01922 1.01462 1.72823 1.47006 1.49191C2.40028 1.00953 3.41214 0.714625 4.47556 0.601352C5.95575 0.445113 7.38653 0.618929 8.7636 1.15209C9.45751 1.42161 10.0956 1.77119 10.6949 2.18718C10.9012 2.32975 11.0172 2.48989 10.9957 2.74183C10.9699 3.04063 10.9914 3.34139 10.9893 3.64215C10.9871 3.8687 10.8625 3.98197 10.6133 3.98783C10.3705 3.99369 10.1299 3.98978 9.88717 3.98978Z" fill="#1C3E55"/>
</svg>
