<svg width="16" height="16" viewBox="0 0 16 16" fill="none" xmlns="http://www.w3.org/2000/svg">
<path d="M1.33833 7.99982V6.65982H2.67666V5.31982H1.33833C0.599251 5.31982 0 5.91982 0 6.65982V7.99982H1.33833Z" fill="#A9B0B0"/>
<path d="M14.6418 0H6.6518C5.91272 0 5.31347 0.6 5.31347 1.34V5.34H3.99512V6.68H5.33344V9.34C5.33344 10.08 5.9327 10.68 6.67177 10.68H9.32845V12H10.6668V10.66H14.6618C15.4009 10.66 16.0001 10.06 16.0001 9.31999V1.32C15.9801 0.6 15.3809 0 14.6418 0ZM14.6418 9.34H6.6518V1.34H14.6418V9.34Z" fill="#A9B0B0"/>
<path d="M7.98999 6.65982H9.32832V7.99982H10.6666V6.65982C10.6666 5.91982 10.0674 5.31982 9.32832 5.31982H7.98999V6.65982Z" fill="#A9B0B0"/>
<path d="M6.6518 14.6602H3.99512V16.0002H6.6518V14.6602Z" fill="#A9B0B0"/>
<path d="M9.32832 13.3398V14.6798H7.98999V15.9998H9.32832C10.0674 15.9998 10.6666 15.3998 10.6666 14.6598V13.3198H9.32832V13.3398Z" fill="#A9B0B0"/>
<path d="M2.65668 14.6598H1.33833V13.3198H0V14.6598C0 15.3998 0.599251 15.9998 1.33833 15.9998H2.67666V14.6598H2.65668Z" fill="#A9B0B0"/>
<path d="M1.33833 9.33984H0V11.9998H1.33833V9.33984Z" fill="#A9B0B0"/>
</svg>
