<svg width="14" height="14" viewBox="0 0 14 14" fill="none" xmlns="http://www.w3.org/2000/svg">
<path d="M12.6875 0C13.4124 0 14 0.587617 14 1.3125V9.1875C14 9.91238 13.4124 10.5 12.6875 10.5H4.8125C4.08762 10.5 3.5 9.91238 3.5 9.1875V1.3125C3.5 0.587617 4.08762 0 4.8125 0H12.6875ZM4.8125 11.375C3.60631 11.375 2.625 10.3937 2.625 9.1875V3.5H1.3125C0.587617 3.5 0 4.08762 0 4.8125V12.6875C0 13.4124 0.587617 14 1.3125 14H9.1875C9.91238 14 10.5 13.4124 10.5 12.6875V11.375H4.8125Z" fill="#A9B0B0"/>
</svg>
