<svg width="14" height="14" viewBox="0 0 14 14" fill="none" xmlns="http://www.w3.org/2000/svg">
<path d="M9.22054 6.38203L6.26679 5.51797C5.92492 5.41953 5.68697 5.09961 5.68697 4.74414C5.68697 4.29844 6.04799 3.9375 6.49379 3.9375H8.30707C8.64073 3.9375 8.96893 4.03867 9.24242 4.22461C9.40926 4.33672 9.63352 4.30937 9.77574 4.16992L10.7275 3.24023C10.9217 3.05156 10.8943 2.73711 10.6783 2.57031C10.0082 2.04531 9.17132 1.75273 8.31254 1.75V0.4375C8.31254 0.196875 8.11562 0 7.87494 0H6.99976C6.75908 0 6.56216 0.196875 6.56216 0.4375V1.75H6.49379C4.75162 1.75 3.35132 3.2457 3.51268 5.02031C3.62755 6.28086 4.59025 7.30625 5.80458 7.66172L8.60791 8.48203C8.94978 8.5832 9.18773 8.90039 9.18773 9.25586C9.18773 9.70156 8.82671 10.0625 8.38091 10.0625H6.56763C6.23397 10.0625 5.90577 9.96133 5.63227 9.77539C5.46544 9.66328 5.24117 9.69063 5.09896 9.83008L4.14719 10.7598C3.95301 10.9484 3.98036 11.2629 4.19642 11.4297C4.86648 11.9547 5.70338 12.2473 6.56216 12.25V13.5625C6.56216 13.8031 6.75908 14 6.99976 14H7.87494C8.11562 14 8.31254 13.8031 8.31254 13.5625V12.2445C9.58703 12.2199 10.7822 11.4625 11.2034 10.2566C11.7914 8.57227 10.8041 6.84414 9.22054 6.38203Z" fill="#F8AF3C"/>
</svg>
