<svg width="5" height="14" viewBox="0 0 5 14" fill="none" xmlns="http://www.w3.org/2000/svg">
<path d="M4.625 11.8125C4.625 13.0187 3.64369 14 2.4375 14C1.23131 14 0.25 13.0187 0.25 11.8125C0.25 10.6063 1.23131 9.625 2.4375 9.625C3.64369 9.625 4.625 10.6063 4.625 11.8125ZM0.503203 0.689035L0.875078 8.12654C0.892551 8.4758 1.18081 8.75 1.53051 8.75H3.34449C3.69419 8.75 3.98245 8.4758 3.99992 8.12654L4.3718 0.689035C4.39053 0.31418 4.09169 0 3.71637 0H1.15863C0.783312 0 0.484473 0.31418 0.503203 0.689035Z" fill="#FD667F"/>
</svg>
