<svg width="12" height="14" viewBox="0 0 12 14" fill="none" xmlns="http://www.w3.org/2000/svg">
<path d="M10.5938 14H1.40625C1.04258 14 0.75 13.6656 0.75 13.25V12.5C0.75 12.0844 1.04258 11.75 1.40625 11.75H10.5938C10.9574 11.75 11.25 12.0844 11.25 12.5V13.25C11.25 13.6656 10.9574 14 10.5938 14ZM4.25 0.75V5H1.85195C1.36523 5 1.12188 5.67188 1.46641 6.06563L5.62812 10.8219C5.8332 11.0562 6.16953 11.0562 6.37461 10.8219L10.5363 6.06563C10.8809 5.67188 10.6375 5 10.1508 5H7.75V0.75C7.75 0.334375 7.45742 0 7.09375 0H4.90625C4.54258 0 4.25 0.334375 4.25 0.75Z" fill="#A9B0B0"/>
</svg>
