<svg width="12" height="10" viewBox="0 0 12 10" fill="none" xmlns="http://www.w3.org/2000/svg">
<path d="M8.91667 5.58872V8.95701C8.91667 9.44019 8.52492 9.83187 8.04167 9.83187H1.625C1.14174 9.83187 0.75 9.44019 0.75 8.95701V2.54135C0.75 2.05817 1.14174 1.66648 1.625 1.66648H6.14583C6.26186 1.66648 6.37314 1.71257 6.45518 1.7946L6.74685 2.08622C7.02247 2.3618 6.82728 2.83297 6.4375 2.83297H1.91667V8.66539H7.75V5.88034C7.75 5.76433 7.7961 5.65305 7.87813 5.57102L8.1698 5.2794C8.44541 5.00383 8.91667 5.199 8.91667 5.58872ZM11.25 1.18044C11.25 0.804653 10.9453 0.5 10.5695 0.5H7.67708C7.39519 0.5 7.16667 0.728485 7.16667 1.01034V1.33631C7.16667 1.62367 7.40385 1.85438 7.69116 1.84645L8.91621 1.81171L4.37924 6.31584C4.20736 6.48649 4.20685 6.76429 4.37813 6.93555L4.81343 7.37078C4.98471 7.54203 5.26258 7.54154 5.43324 7.36968L9.93806 2.83342L9.90332 4.05829C9.89541 4.34553 10.1262 4.5827 10.4136 4.5827H10.7396C11.0215 4.5827 11.25 4.35421 11.25 4.07236V1.18044Z" fill="#3A8DDE"/>
</svg>
