<svg width="9" height="13" viewBox="0 0 9 13" fill="none" xmlns="http://www.w3.org/2000/svg">
<path d="M8.65388 2.98932L6.79026 1.1257C6.59035 0.925784 6.31936 0.8125 6.03726 0.8125H1.5037C0.915068 0.814721 0.4375 1.29229 0.4375 1.88092V11.1213C0.4375 11.7099 0.915068 12.1875 1.5037 12.1875H7.90088C8.48951 12.1875 8.96708 11.7099 8.96708 11.1213V3.74454C8.96708 3.46245 8.8538 3.18923 8.65388 2.98932ZM7.81425 3.65792H6.12389V1.96755L7.81425 3.65792ZM1.5037 11.1213V1.88092H5.05769V4.19102C5.05769 4.48644 5.29536 4.72411 5.59079 4.72411H7.90088V11.1213H1.5037Z" fill="#A9B0B0"/>
</svg>
