<svg width="17" height="16" viewBox="0 0 17 16" fill="none" 
  xmlns="http://www.w3.org/2000/svg">
  <path d="M8.092 7.79019L8.09192 7.79015L0.46592 4.48797C0.465915 4.48797 0.46591 4.48797 0.465905 4.48797C0.0446178 4.30547 0.0446169 3.69451 0.465903 3.51201C0.465909 3.51201 0.465915 3.51201 0.46592 3.51201L8.09224 0.209827L8.09262 0.209661C8.18293 0.17026 8.28135 0.149756 8.38114 0.149756C8.48092 0.149756 8.57934 0.17026 8.66965 0.209661L8.67002 0.209823L16.2957 3.51232C16.717 3.69481 16.717 4.30547 16.2957 4.48797C16.2957 4.48797 16.2957 4.48797 16.2957 4.48797L8.6697 7.79015L8.66962 7.79019C8.48508 7.87023 8.27654 7.87023 8.092 7.79019ZM16.2961 7.52203L16.3556 7.38436L16.2961 7.52204C16.7173 7.70424 16.7173 8.31448 16.2961 8.49669L16.3556 8.63436L16.2961 8.4967L8.66978 11.7964C8.48515 11.8762 8.27647 11.8762 8.09184 11.7964L0.465867 8.4967L0.465854 8.49669C0.0446341 8.31448 0.0446341 7.70424 0.465854 7.52204L2.30838 6.72499L7.54027 8.9889L7.5403 8.98891C7.80694 9.10424 8.08976 9.1628 8.38097 9.1628C8.67213 9.1628 8.95529 9.10426 9.22167 8.9889C9.22169 8.9889 9.2217 8.98889 9.22171 8.98888L14.4539 6.72499L16.2961 7.52203ZM16.2961 11.5158L16.3556 11.3781L16.2961 11.5158C16.7173 11.698 16.7173 12.3082 16.2961 12.4904L16.3556 12.6281L16.2961 12.4904L8.66978 15.7901C8.48515 15.8699 8.27647 15.8699 8.09184 15.7901L0.465867 12.4904L0.465854 12.4904C0.0446341 12.3082 0.0446341 11.698 0.465854 11.5158L2.30117 10.7219L7.54027 12.9889L7.5403 12.9889C7.80694 13.1042 8.08976 13.1628 8.38097 13.1628C8.67213 13.1628 8.95529 13.1043 9.22167 12.9889C9.22169 12.9889 9.2217 12.9889 9.22171 12.9889L14.4611 10.7219L16.2961 11.5158Z" fill="#A9B0B0" stroke="white" strokeWidth="0.3" />
</svg>