<svg width="16" height="16" viewBox="0 0 16 16" fill="none" 
  xmlns="http://www.w3.org/2000/svg">
  <path d="M8 16C12.4183 16 16 12.4183 16 8C16 3.58171 12.4183 0 8 0C3.58171 0 0 3.58171 0 8C0 12.4183 3.58171 16 8 16ZM4.66458 13.5252L6.38752 11.8022C7.41352 12.2379 8.58519 12.2384 9.61248 11.8022L11.3354 13.5252C9.29616 14.7613 6.70384 14.7613 4.66458 13.5252ZM10.5806 8C10.5806 9.42297 9.42297 10.5806 8 10.5806C6.57703 10.5806 5.41935 9.42297 5.41935 8C5.41935 6.57703 6.57703 5.41935 8 5.41935C9.42297 5.41935 10.5806 6.57703 10.5806 8ZM13.5252 11.3354L11.8022 9.61248C12.2379 8.58648 12.2384 7.41481 11.8022 6.38752L13.5252 4.66458C14.7613 6.70384 14.7613 9.29616 13.5252 11.3354ZM11.3354 2.47484L9.61245 4.19777C8.58645 3.76213 7.41477 3.76158 6.38752 4.19777L4.66458 2.47484C6.70384 1.23874 9.29616 1.23874 11.3354 2.47484ZM2.47484 4.66458L4.19777 6.38752C3.7621 7.41352 3.76158 8.58519 4.19777 9.61248L2.47484 11.3354C1.23874 9.29616 1.23874 6.70384 2.47484 4.66458Z" fill="#3A8DDE" />
</svg>