<svg width="12" height="12" viewBox="0 0 12 12" fill="none" xmlns="http://www.w3.org/2000/svg">
<path d="M10.875 0.75H1.125C0.503906 0.75 0 1.25391 0 1.875V10.125C0 10.7461 0.503906 11.25 1.125 11.25H10.875C11.4961 11.25 12 10.7461 12 10.125V1.875C12 1.25391 11.4961 0.75 10.875 0.75ZM3 3.46875C3 3.62344 2.87344 3.75 2.71875 3.75H1.78125C1.62656 3.75 1.5 3.62344 1.5 3.46875V2.53125C1.5 2.37656 1.62656 2.25 1.78125 2.25H2.71875C2.87344 2.25 3 2.37656 3 2.53125V3.46875ZM10.5 3.46875C10.5 3.62344 10.3734 3.75 10.2188 3.75H4.40625C4.25156 3.75 4.125 3.62344 4.125 3.46875V2.53125C4.125 2.37656 4.25156 2.25 4.40625 2.25H10.2188C10.3734 2.25 10.5 2.37656 10.5 2.53125V3.46875Z" fill="#3A8DDE"/>
</svg>
