<svg width="16" height="16" viewBox="0 0 16 16" fill="none" xmlns="http://www.w3.org/2000/svg">
<path d="M1 1.8C1 1.35817 1.35817 1 1.8 1H4.2C4.64183 1 5 1.35817 5 1.8V14.2C5 14.6418 4.64183 15 4.2 15H1.8C1.35817 15 1 14.6418 1 14.2V1.8Z" fill="#1C3E55"/>
<path d="M6 1.8C6 1.35817 6.35817 1 6.8 1H9.2C9.64183 1 10 1.35817 10 1.8V8.2C10 8.64183 9.64183 9 9.2 9H6.8C6.35817 9 6 8.64183 6 8.2V1.8Z" fill="#1C3E55"/>
<path d="M11 1.8C11 1.35817 11.3582 1 11.8 1H14.2C14.6418 1 15 1.35817 15 1.8V11.2C15 11.6418 14.6418 12 14.2 12H11.8C11.3582 12 11 11.6418 11 11.2V1.8Z" fill="#1C3E55"/>
</svg>
