<svg width="10" height="10" viewBox="0 0 10 10" fill="none" xmlns="http://www.w3.org/2000/svg">
<path d="M6.24123 3.75883C7.29147 4.81016 7.27705 6.4957 6.24756 7.53091C6.24562 7.53302 6.24334 7.53531 6.24123 7.53742L5.05998 8.71866C4.01812 9.76052 2.32309 9.76038 1.28139 8.71866C0.239536 7.67699 0.239536 5.98175 1.28139 4.94008L1.93364 4.28782C2.10661 4.11486 2.40449 4.22982 2.41342 4.47426C2.42481 4.78578 2.48067 5.09875 2.58375 5.40099C2.61866 5.50333 2.59372 5.61653 2.51725 5.693L2.28721 5.92304C1.79457 6.41569 1.77911 7.21785 2.26691 7.71531C2.75952 8.21767 3.5692 8.22066 4.06559 7.72427L5.24683 6.5432C5.74238 6.04765 5.7403 5.24669 5.24683 4.75322C5.18178 4.68829 5.11625 4.63784 5.06506 4.6026C5.02885 4.57773 4.99895 4.54474 4.97775 4.50627C4.95654 4.4678 4.94463 4.4249 4.94294 4.38101C4.93598 4.19526 5.0018 4.00385 5.14857 3.85707L5.51866 3.48697C5.61571 3.38992 5.76795 3.378 5.88049 3.45654C6.00937 3.54653 6.13008 3.64768 6.24123 3.75883ZM8.7186 1.28134C7.6769 0.239625 5.98186 0.239484 4.94001 1.28134L3.75876 2.46259C3.75665 2.46469 3.75437 2.46698 3.75243 2.46909C2.72295 3.5043 2.70852 5.18984 3.75876 6.24117C3.8699 6.35231 3.99061 6.45346 4.11948 6.54344C4.23202 6.62198 4.38428 6.61005 4.48131 6.51302L4.8514 6.14291C4.99817 5.99613 5.06399 5.80473 5.05703 5.61898C5.05534 5.57508 5.04343 5.53219 5.02222 5.49371C5.00102 5.45524 4.97112 5.42226 4.93491 5.39739C4.88372 5.36214 4.81819 5.3117 4.75314 5.24676C4.25967 4.75329 4.25759 3.95233 4.75314 3.45678L5.93438 2.27571C6.43077 1.77932 7.24044 1.78231 7.73306 2.28468C8.22086 2.78214 8.20542 3.5843 7.71276 4.07694L7.48272 4.30698C7.40625 4.38345 7.38131 4.49665 7.41622 4.59899C7.5193 4.90123 7.57516 5.21421 7.58655 5.52573C7.5955 5.77017 7.89336 5.88513 8.06633 5.71216L8.71858 5.05991C9.76045 4.01825 9.76045 2.32302 8.7186 1.28134Z" fill="#3A8DDE"/>
</svg>
