<svg width="14" height="12" viewBox="0 0 14 12" fill="none" 
  xmlns="http://www.w3.org/2000/svg">
  <path d="M13.0833 2.16671H5.91667C5.41667 2.16671 5 1.75004 5 1.25004C5 0.750041 5.41667 0.333374 5.91667 0.333374H13.0833C13.5833 0.333374 14 0.750041 14 1.25004C14 1.75004 13.6667 2.16671 13.0833 2.16671Z" fill="#A9B0B0" />
  <path d="M13.0833 6.74996H5.91667C5.41667 6.74996 5 6.33329 5 5.83329C5 5.33329 5.41667 4.91663 5.91667 4.91663H13.0833C13.5833 4.91663 14 5.33329 14 5.83329C14 6.33329 13.6667 6.74996 13.0833 6.74996Z" fill="#A9B0B0" />
  <path d="M13.0833 11.3333H5.91667C5.41667 11.3333 5 10.9167 5 10.4167C5 9.91667 5.41667 9.5 5.91667 9.5H13.0833C13.5833 9.5 14 9.91667 14 10.4167C14 10.9167 13.6667 11.3333 13.0833 11.3333Z" fill="#A9B0B0" />
  <path d="M0 2.16667V0.25C0 0.0833333 0.0833333 0 0.25 0H3C3.16667 0 3.25 0.0833333 3.25 0.25V2.16667C3.25 2.33333 3.16667 2.41667 3 2.41667H0.25C0.0833333 2.41667 0 2.33333 0 2.16667Z" fill="#A9B0B0" />
  <path d="M0 6.74996V4.91663C0 4.74996 0.0833333 4.66663 0.25 4.66663H3C3.16667 4.66663 3.25 4.74996 3.25 4.91663V6.83329C3.25 6.99996 3.16667 7.08329 3 7.08329H0.25C0.0833333 7.08329 0 6.91663 0 6.74996Z" fill="#A9B0B0" />
  <path d="M0 11.4167V9.5C0 9.33333 0.0833333 9.25 0.25 9.25H3C3.16667 9.25 3.25 9.33333 3.25 9.5V11.4167C3.25 11.5833 3.16667 11.6667 3 11.6667H0.25C0.0833333 11.6667 0 11.5833 0 11.4167Z" fill="#A9B0B0" />
</svg>