<svg width="12" height="10" viewBox="0 0 12 10" fill="none" 
  xmlns="http://www.w3.org/2000/svg">
  <path d="M9.75 9.5H7.78125C7.62656 9.5 7.5 9.37344 7.5 9.21875V8.28125C7.5 8.12656 7.62656 8 7.78125 8H9.75C10.1648 8 10.5 7.66484 10.5 7.25V2.75C10.5 2.33516 10.1648 2 9.75 2H7.78125C7.62656 2 7.5 1.87344 7.5 1.71875V0.78125C7.5 0.626563 7.62656 0.5 7.78125 0.5H9.75C10.9922 0.5 12 1.50781 12 2.75V7.25C12 8.49219 10.9922 9.5 9.75 9.5ZM8.64844 4.78906L4.71094 0.851562C4.35938 0.5 3.75 0.746094 3.75 1.25V3.5H0.5625C0.250781 3.5 0 3.75078 0 4.0625V6.3125C0 6.62422 0.250781 6.875 0.5625 6.875H3.75V9.125C3.75 9.62891 4.35938 9.875 4.71094 9.52344L8.64844 5.58594C8.86641 5.36562 8.86641 5.00938 8.64844 4.78906Z" fill="#3A8DDE" />
</svg>