<svg width="14" height="14" viewBox="0 0 14 14" fill="none" 
  xmlns="http://www.w3.org/2000/svg">
  <path d="M8.09375 0.875H13.3438C13.7062 0.875 14 1.16881 14 1.53125V5.90625C14 6.26869 13.7062 6.5625 13.3438 6.5625H8.09375C7.73131 6.5625 7.4375 6.26869 7.4375 5.90625V1.53125C7.4375 1.16881 7.73131 0.875 8.09375 0.875ZM5.90625 0.875H0.65625C0.293809 0.875 0 1.16881 0 1.53125V5.90625C0 6.26869 0.293809 6.5625 0.65625 6.5625H5.90625C6.26869 6.5625 6.5625 6.26869 6.5625 5.90625V1.53125C6.5625 1.16881 6.26869 0.875 5.90625 0.875ZM0 8.09375V12.4688C0 12.8312 0.293809 13.125 0.65625 13.125H5.90625C6.26869 13.125 6.5625 12.8312 6.5625 12.4688V8.09375C6.5625 7.73131 6.26869 7.4375 5.90625 7.4375H0.65625C0.293809 7.4375 0 7.73131 0 8.09375ZM8.09375 13.125H13.3438C13.7062 13.125 14 12.8312 14 12.4688V8.09375C14 7.73131 13.7062 7.4375 13.3438 7.4375H8.09375C7.73131 7.4375 7.4375 7.73131 7.4375 8.09375V12.4688C7.4375 12.8312 7.73131 13.125 8.09375 13.125Z" fill="#A9B0B0" />
</svg>