<svg width="13" height="12" viewBox="0 0 13 12" fill="none" 
  xmlns="http://www.w3.org/2000/svg">
  <path d="M0 10.5938V1.40625C0 1.04258 0.292578 0.75 0.65625 0.75H1.3125C1.67617 0.75 1.96875 1.04258 1.96875 1.40625V10.5938C1.96875 10.9574 1.67617 11.25 1.3125 11.25H0.65625C0.292578 11.25 0 10.9574 0 10.5938ZM11.5938 4.25H7.875V1.85195C7.875 1.36523 7.28711 1.12187 6.94258 1.46641L2.78086 5.62539C2.57578 5.83047 2.57578 6.1668 2.78086 6.37188L6.94258 10.5336C7.28711 10.8781 7.875 10.6348 7.875 10.148V7.75H11.5938C11.9574 7.75 12.25 7.45742 12.25 7.09375V4.90625C12.25 4.54258 11.9574 4.25 11.5938 4.25Z" fill="#8B9293"/>
</svg>