<svg width="16" height="12" viewBox="0 0 16 12" fill="none" xmlns="http://www.w3.org/2000/svg">
<path d="M5.08545 5.91666C6.53623 5.91666 7.71045 4.74244 7.71045 3.29166C7.71045 1.84088 6.53623 0.666656 5.08545 0.666656C3.63467 0.666656 2.46045 1.84088 2.46045 3.29166C2.46045 4.74244 3.63467 5.91666 5.08545 5.91666ZM6.88545 6.66666H6.69092C6.20342 6.90103 5.66201 7.04166 5.08545 7.04166C4.50889 7.04166 3.96982 6.90103 3.47998 6.66666H3.28545C1.79482 6.66666 0.585449 7.87603 0.585449 9.36666V10.0417C0.585449 10.6628 1.08936 11.1667 1.71045 11.1667H8.46045C9.08154 11.1667 9.58545 10.6628 9.58545 10.0417V9.36666C9.58545 7.87603 8.37607 6.66666 6.88545 6.66666ZM11.8354 5.91666C13.0776 5.91666 14.0854 4.90884 14.0854 3.66666C14.0854 2.42447 13.0776 1.41666 11.8354 1.41666C10.5933 1.41666 9.58545 2.42447 9.58545 3.66666C9.58545 4.90884 10.5933 5.91666 11.8354 5.91666ZM12.9604 6.66666H12.8714C12.5456 6.77916 12.2011 6.85416 11.8354 6.85416C11.4698 6.85416 11.1253 6.77916 10.7995 6.66666H10.7104C10.2323 6.66666 9.7917 6.80494 9.40498 7.02759C9.97686 7.644 10.3354 8.46197 10.3354 9.36666V10.2667C10.3354 10.3182 10.3237 10.3674 10.3214 10.4167H14.4604C15.0815 10.4167 15.5854 9.91275 15.5854 9.29166C15.5854 7.84088 14.4112 6.66666 12.9604 6.66666Z" fill="#5A8CAE"/>
<path d="M5.08545 5.91666C6.53623 5.91666 7.71045 4.74244 7.71045 3.29166C7.71045 1.84088 6.53623 0.666656 5.08545 0.666656C3.63467 0.666656 2.46045 1.84088 2.46045 3.29166C2.46045 4.74244 3.63467 5.91666 5.08545 5.91666ZM6.88545 6.66666H6.69092C6.20342 6.90103 5.66201 7.04166 5.08545 7.04166C4.50889 7.04166 3.96982 6.90103 3.47998 6.66666H3.28545C1.79482 6.66666 0.585449 7.87603 0.585449 9.36666V10.0417C0.585449 10.6628 1.08936 11.1667 1.71045 11.1667H8.46045C9.08154 11.1667 9.58545 10.6628 9.58545 10.0417V9.36666C9.58545 7.87603 8.37607 6.66666 6.88545 6.66666Z" fill="#E1EEFB"/>
</svg>
