<svg width="16" height="15" viewBox="0 0 16 15" fill="none" xmlns="http://www.w3.org/2000/svg">
<g clip-path="url(#clip0)">
<path d="M14.8647 9.24905L13.6166 8.52835C13.7426 7.84866 13.7426 7.1514 13.6166 6.47171L14.8647 5.75101C15.0082 5.66897 15.0727 5.49905 15.0258 5.34085C14.7006 4.29788 14.1469 3.35452 13.4233 2.56936C13.3119 2.44925 13.1303 2.41995 12.9897 2.50198L11.7416 3.22268C11.2172 2.77151 10.6137 2.42288 9.96038 2.19436V0.755887C9.96038 0.591824 9.84613 0.44827 9.68499 0.413113C8.6098 0.172879 7.50824 0.184598 6.48577 0.413113C6.32464 0.44827 6.21038 0.591824 6.21038 0.755887V2.19729C5.55999 2.42874 4.95648 2.77737 4.42913 3.22561L3.18402 2.50491C3.04046 2.42288 2.86175 2.44925 2.75042 2.57229C2.02679 3.35452 1.47308 4.29788 1.14788 5.34378C1.09808 5.50198 1.16546 5.6719 1.30902 5.75393L2.55706 6.47464C2.43109 7.15433 2.43109 7.85159 2.55706 8.53128L1.30902 9.25198C1.16546 9.33401 1.10101 9.50394 1.14788 9.66214C1.47308 10.7051 2.02679 11.6485 2.75042 12.4336C2.86175 12.5537 3.04339 12.583 3.18402 12.501L4.43206 11.7803C4.95648 12.2315 5.55999 12.5801 6.21331 12.8086V14.25C6.21331 14.4141 6.32757 14.5576 6.4887 14.5928C7.5639 14.833 8.66546 14.8213 9.68792 14.5928C9.84906 14.5576 9.96331 14.4141 9.96331 14.25V12.8086C10.6137 12.5772 11.2172 12.2285 11.7446 11.7803L12.9926 12.501C13.1362 12.583 13.3149 12.5567 13.4262 12.4336C14.1498 11.6514 14.7035 10.708 15.0287 9.66214C15.0727 9.50101 15.0082 9.33109 14.8647 9.24905ZM8.08538 9.84378C6.79339 9.84378 5.74163 8.79202 5.74163 7.50003C5.74163 6.20804 6.79339 5.15628 8.08538 5.15628C9.37738 5.15628 10.4291 6.20804 10.4291 7.50003C10.4291 8.79202 9.37738 9.84378 8.08538 9.84378Z" fill="white"/>
</g>
<defs>
<clipPath id="clip0">
<rect width="15" height="15" fill="white" transform="translate(0.585449)"/>
</clipPath>
</defs>
</svg>
