<svg width="16" height="16" viewBox="0 0 16 16" fill="none" xmlns="http://www.w3.org/2000/svg">
<path d="M5.42295 12.3541V12.2041H5.27295H2.46045C1.50911 12.2041 0.735449 11.4305 0.735449 10.4791V2.04163C0.735449 1.09029 1.50911 0.316626 2.46045 0.316626H13.7104C14.6618 0.316626 15.4354 1.09029 15.4354 2.04163V10.4791C15.4354 11.4305 14.6618 12.2041 13.7104 12.2041H9.4917H9.44169L9.40168 12.2341L5.74375 14.9783C5.74358 14.9785 5.7434 14.9786 5.74323 14.9787C5.6114 15.0749 5.42295 14.9797 5.42295 14.8151V12.3541ZM8.78857 8.28538C9.00032 8.28538 9.17295 8.11275 9.17295 7.901V7.43225C9.17295 7.2205 9.00032 7.04788 8.78857 7.04788H4.56982C4.35808 7.04788 4.18545 7.2205 4.18545 7.43225V7.901C4.18545 8.11275 4.35808 8.28538 4.56982 8.28538H8.78857ZM11.6011 5.47288C11.8128 5.47288 11.9854 5.30025 11.9854 5.0885V4.61975C11.9854 4.408 11.8128 4.23538 11.6011 4.23538H4.56982C4.35808 4.23538 4.18545 4.408 4.18545 4.61975V5.0885C4.18545 5.30025 4.35808 5.47288 4.56982 5.47288H11.6011Z" fill="#E1EEFB" stroke="#1C3E55" stroke-width="0.3"/>
</svg>
