<svg width="16" height="16" viewBox="0 0 16 16" fill="none" xmlns="http://www.w3.org/2000/svg">
<path d="M3.63232 6.72913H1.28857C0.900244 6.72913 0.585449 7.04392 0.585449 7.43225V14.4635C0.585449 14.8518 0.900244 15.1666 1.28857 15.1666H3.63232C4.02065 15.1666 4.33545 14.8518 4.33545 14.4635V7.43225C4.33545 7.04392 4.02065 6.72913 3.63232 6.72913ZM11.8354 2.55292C11.8354 3.79557 11.0746 4.4926 10.8605 5.32288H13.8407C14.8191 5.32288 15.5808 6.13575 15.5854 7.02497C15.5879 7.55049 15.3643 8.11625 15.0159 8.46628L15.0127 8.46951C15.3009 9.15321 15.254 10.1112 14.74 10.7977C14.9943 11.5563 14.738 12.4882 14.2601 12.9878C14.386 13.5034 14.3258 13.9422 14.0799 14.2954C13.482 15.1545 12 15.1666 10.7467 15.1666L10.6634 15.1666C9.24874 15.1661 8.09096 14.651 7.16066 14.2372C6.69317 14.0292 6.08192 13.7717 5.61815 13.7632C5.42655 13.7597 5.27295 13.6033 5.27295 13.4117V7.14889C5.27295 7.05514 5.31051 6.96517 5.37719 6.89925C6.53775 5.75246 7.0368 4.53831 7.98804 3.58545C8.42175 3.15092 8.57948 2.49456 8.73197 1.85981C8.86226 1.31779 9.13478 0.166626 9.72607 0.166626C10.4292 0.166626 11.8354 0.401001 11.8354 2.55292Z" fill="#5A8CAE"/>
<path d="M11.8354 2.55292C11.8354 3.79557 11.0746 4.4926 10.8605 5.32288H13.8407C14.8191 5.32288 15.5808 6.13575 15.5854 7.02497C15.5879 7.55049 15.3643 8.11625 15.0159 8.46628L15.0127 8.46951C15.3009 9.15321 15.254 10.1112 14.74 10.7977C14.9943 11.5563 14.738 12.4882 14.2601 12.9878C14.386 13.5034 14.3258 13.9422 14.0799 14.2954C13.482 15.1545 12 15.1666 10.7467 15.1666L10.6634 15.1666C9.24874 15.1661 8.09096 14.651 7.16066 14.2372C6.69317 14.0292 6.08192 13.7717 5.61815 13.7632C5.42655 13.7597 5.27295 13.6033 5.27295 13.4117V7.14889C5.27295 7.05514 5.31051 6.96517 5.37719 6.89925C6.53775 5.75246 7.0368 4.53831 7.98804 3.58545C8.42175 3.15092 8.57948 2.49456 8.73197 1.85981C8.86226 1.31779 9.13478 0.166626 9.72607 0.166626C10.4292 0.166626 11.8354 0.401001 11.8354 2.55292Z" fill="#E1EEFB"/>
</svg>
