<svg width="16" height="16" viewBox="0 0 16 16" fill="none" xmlns="http://www.w3.org/2000/svg">
<path d="M6.99802 8.75493V8.60493V1.65307C6.99802 1.45725 6.8259 1.30587 6.64635 1.33109C3.23198 1.81337 0.621992 4.79425 0.739252 8.36768C0.855898 11.9224 3.83085 14.8971 7.38527 15.0137C10.9587 15.131 13.9395 12.521 14.4219 9.10668L6.99802 8.75493ZM6.99802 8.75493H7.14802M6.99802 8.75493H7.14802M7.14802 8.75493H14.0999M7.14802 8.75493H14.0999M14.0999 8.75493C14.2955 8.75493 14.4471 8.92712 14.4219 9.10661L14.0999 8.75493ZM9.03613 0.318244L9.03614 0.318245C12.4612 0.554498 15.1985 3.29172 15.435 6.71683C15.4468 6.89083 15.2972 7.04868 15.11 7.04868H8.70428V0.64321C8.70428 0.455749 8.86209 0.306222 9.03613 0.318244Z" fill="#5A8CAE" stroke="#1C3E55" stroke-width="0.3"/>
<path d="M6.99802 8.60491V8.75491H7.14802H14.0999C14.2955 8.75491 14.4471 8.92715 14.4219 9.10666C13.9395 12.521 10.9587 15.1309 7.38527 15.0137C3.83085 14.897 0.855898 11.9224 0.739252 8.36767C0.621992 4.79423 3.23198 1.81335 6.64635 1.33107C6.8259 1.30585 6.99802 1.45723 6.99802 1.65306V8.60491Z" fill="#E1EEFB" stroke="#1C3E55" stroke-width="0.3"/>
</svg>
