<svg width="16" height="12" viewBox="0 0 16 12" fill="none" xmlns="http://www.w3.org/2000/svg">
<path d="M1.71214 6.62334L1.75196 6.5336L1.68566 6.4612C1.08435 5.80454 0.735449 5.01656 0.735449 4.16667C0.735449 1.98164 3.0538 0.15 6.00212 0.15C8.95043 0.15 11.2688 1.98164 11.2688 4.16667C11.2688 6.35169 8.95043 8.18333 6.00212 8.18333C4.95695 8.18333 3.98727 7.94623 3.16942 7.54746L3.0974 7.51235L3.02817 7.55268C2.4757 7.87454 1.71271 8.18333 0.793783 8.18333C0.769723 8.18333 0.751192 8.17149 0.741312 8.14869C0.730942 8.12476 0.73643 8.10083 0.751137 8.08545L0.75111 8.08543C0.794301 8.03947 1.36234 7.4117 1.71214 6.62334ZM14.4854 9.79432L14.4189 9.86665L14.4587 9.9565C14.8035 10.7362 15.3604 11.355 15.4176 11.4164L15.4176 11.4165C15.4363 11.4369 15.4386 11.4619 15.4303 11.4803L15.4303 11.4803L15.4286 11.4843C15.4213 11.502 15.4017 11.5167 15.3771 11.5167C14.4582 11.5167 13.6952 11.2079 13.1427 10.886L13.0733 10.8456L13.0011 10.881C12.1837 11.2821 11.2142 11.5167 10.1688 11.5167C8.09468 11.5167 6.31671 10.6014 5.45784 9.29396C5.63609 9.30789 5.81718 9.31667 6.00212 9.31667C9.49727 9.31667 12.4021 7.03685 12.4021 4.16667C12.4021 4.06376 12.3987 3.96137 12.3914 3.85955C14.2075 4.50703 15.4354 5.90815 15.4354 7.5C15.4354 8.35004 15.0864 9.14051 14.4854 9.79432Z" fill="#5A8CAE" stroke="#1C3E55" stroke-width="0.3"/>
<path d="M1.71214 6.62334L1.75196 6.5336L1.68566 6.4612C1.08435 5.80454 0.735449 5.01656 0.735449 4.16667C0.735449 1.98164 3.0538 0.15 6.00212 0.15C8.95043 0.15 11.2688 1.98164 11.2688 4.16667C11.2688 6.35169 8.95043 8.18333 6.00212 8.18333C4.95695 8.18333 3.98727 7.94623 3.16942 7.54746L3.0974 7.51235L3.02817 7.55268C2.4757 7.87454 1.71271 8.18333 0.793783 8.18333C0.769723 8.18333 0.751192 8.17149 0.741312 8.14869C0.730942 8.12476 0.73643 8.10083 0.751137 8.08545L0.75111 8.08543C0.794301 8.03947 1.36234 7.4117 1.71214 6.62334Z" fill="#E1EEFB" stroke="#1C3E55" stroke-width="0.3"/>
</svg>
