<svg width="17" height="12" viewBox="0 0 17 12" fill="none" xmlns="http://www.w3.org/2000/svg">
<mask id="path-1-inside-1" fill="white">
<path d="M16.2823 3.9625C16.4042 3.86563 16.5854 3.95625 16.5854 4.10938V10.5C16.5854 11.3281 15.9136 12 15.0854 12H2.08545C1.25732 12 0.585449 11.3281 0.585449 10.5V4.1125C0.585449 3.95625 0.763574 3.86875 0.888574 3.96562C1.58857 4.50937 2.5167 5.2 5.7042 7.51562C6.36357 7.99687 7.47607 9.00938 8.58545 9.00313C9.70107 9.0125 10.8354 7.97813 11.4698 7.51562C14.6573 5.2 15.5823 4.50625 16.2823 3.9625ZM8.58545 8C9.31045 8.0125 10.3542 7.0875 10.8792 6.70625C15.0261 3.69688 15.3417 3.43437 16.2979 2.68437C16.4792 2.54375 16.5854 2.325 16.5854 2.09375V1.5C16.5854 0.671875 15.9136 0 15.0854 0H2.08545C1.25732 0 0.585449 0.671875 0.585449 1.5V2.09375C0.585449 2.325 0.691699 2.54062 0.872949 2.68437C1.8292 3.43125 2.14482 3.69688 6.2917 6.70625C6.8167 7.0875 7.86045 8.0125 8.58545 8Z"/>
</mask>
<path d="M16.2823 3.9625C16.4042 3.86563 16.5854 3.95625 16.5854 4.10938V10.5C16.5854 11.3281 15.9136 12 15.0854 12H2.08545C1.25732 12 0.585449 11.3281 0.585449 10.5V4.1125C0.585449 3.95625 0.763574 3.86875 0.888574 3.96562C1.58857 4.50937 2.5167 5.2 5.7042 7.51562C6.36357 7.99687 7.47607 9.00938 8.58545 9.00313C9.70107 9.0125 10.8354 7.97813 11.4698 7.51562C14.6573 5.2 15.5823 4.50625 16.2823 3.9625ZM8.58545 8C9.31045 8.0125 10.3542 7.0875 10.8792 6.70625C15.0261 3.69688 15.3417 3.43437 16.2979 2.68437C16.4792 2.54375 16.5854 2.325 16.5854 2.09375V1.5C16.5854 0.671875 15.9136 0 15.0854 0H2.08545C1.25732 0 0.585449 0.671875 0.585449 1.5V2.09375C0.585449 2.325 0.691699 2.54062 0.872949 2.68437C1.8292 3.43125 2.14482 3.69688 6.2917 6.70625C6.8167 7.0875 7.86045 8.0125 8.58545 8Z" fill="#5A8CAE"/>
<path d="M16.2823 3.9625L16.4664 4.19943L16.469 4.19735L16.2823 3.9625ZM0.888574 3.96562L1.07261 3.72871L1.07235 3.7285L0.888574 3.96562ZM5.7042 7.51562L5.88106 7.2733L5.88052 7.27291L5.7042 7.51562ZM8.58545 9.00313L8.58797 8.70311L8.58376 8.70313L8.58545 9.00313ZM11.4698 7.51562L11.2935 7.27291L11.2931 7.27321L11.4698 7.51562ZM8.58545 8L8.59062 7.69987L8.58028 7.70004L8.58545 8ZM10.8792 6.70625L10.703 6.46345L10.7029 6.4635L10.8792 6.70625ZM16.2979 2.68437L16.114 2.44735L16.1128 2.44832L16.2979 2.68437ZM2.08545 0V0.3V0ZM0.872949 2.68437L0.686526 2.91943L0.688286 2.92081L0.872949 2.68437ZM6.2917 6.70625L6.46798 6.4635L6.4679 6.46345L6.2917 6.70625ZM16.469 4.19735C16.4291 4.22902 16.3788 4.22691 16.3475 4.21155C16.3173 4.19673 16.2854 4.16008 16.2854 4.10938H16.8854C16.8854 3.71092 16.4186 3.47093 16.0957 3.72765L16.469 4.19735ZM16.2854 4.10938V10.5H16.8854V4.10938H16.2854ZM16.2854 10.5C16.2854 11.1624 15.7479 11.7 15.0854 11.7V12.3C16.0793 12.3 16.8854 11.4938 16.8854 10.5H16.2854ZM15.0854 11.7H2.08545V12.3H15.0854V11.7ZM2.08545 11.7C1.42301 11.7 0.885449 11.1624 0.885449 10.5H0.285449C0.285449 11.4938 1.09164 12.3 2.08545 12.3V11.7ZM0.885449 10.5V4.1125H0.285449V10.5H0.885449ZM0.885449 4.1125C0.885449 4.20796 0.775111 4.25724 0.704803 4.20275L1.07235 3.7285C0.752037 3.48026 0.285449 3.70454 0.285449 4.1125H0.885449ZM0.704539 4.20254C1.40903 4.74979 2.34119 5.44331 5.52787 7.75834L5.88052 7.27291C2.69221 4.95669 1.76811 4.26896 1.07261 3.72871L0.704539 4.20254ZM5.52734 7.75795C5.83228 7.98051 6.30718 8.3774 6.8169 8.69648C7.33122 9.01843 7.94622 9.30673 8.58714 9.30312L8.58376 8.70313C8.1153 8.70577 7.61937 8.49094 7.13525 8.1879C6.64653 7.88197 6.23549 7.53199 5.88106 7.2733L5.52734 7.75795ZM8.58293 9.30311C9.22801 9.30854 9.85069 9.0148 10.3676 8.69044C10.8798 8.36902 11.3553 7.97038 11.6466 7.75804L11.2931 7.27321C10.95 7.52337 10.5411 7.87317 10.0486 8.18222C9.56084 8.48833 9.05852 8.70709 8.58797 8.70314L8.58293 9.30311ZM11.6461 7.75834C14.8334 5.44288 15.7621 4.74651 16.4664 4.19942L16.0983 3.72558C15.4026 4.26599 14.4812 4.95712 11.2935 7.27291L11.6461 7.75834ZM8.58028 8.29996C8.82227 8.30413 9.06877 8.23096 9.29603 8.13163C9.52617 8.03103 9.75716 7.89438 9.97341 7.75061C10.3923 7.47214 10.8212 7.11915 11.0555 6.949L10.7029 6.4635C10.4122 6.6746 10.0567 6.97473 9.64124 7.25095C9.44031 7.38453 9.2416 7.50061 9.05573 7.58185C8.86697 7.66435 8.71113 7.70212 8.59062 7.70004L8.58028 8.29996ZM11.0554 6.94905C15.2036 3.93875 15.5226 3.67376 16.4831 2.92043L16.1128 2.44832C15.1608 3.19499 14.8486 3.455 10.703 6.46345L11.0554 6.94905ZM16.4818 2.9214C16.7373 2.72322 16.8854 2.4165 16.8854 2.09375H16.2854C16.2854 2.2335 16.2211 2.36428 16.114 2.44735L16.4818 2.9214ZM16.8854 2.09375V1.5H16.2854V2.09375H16.8854ZM16.8854 1.5C16.8854 0.50619 16.0793 -0.3 15.0854 -0.3V0.3C15.7479 0.3 16.2854 0.83756 16.2854 1.5H16.8854ZM15.0854 -0.3H2.08545V0.3H15.0854V-0.3ZM2.08545 -0.3C1.09164 -0.3 0.285449 0.50619 0.285449 1.5H0.885449C0.885449 0.83756 1.42301 0.3 2.08545 0.3V-0.3ZM0.285449 1.5V2.09375H0.885449V1.5H0.285449ZM0.285449 2.09375C0.285449 2.41842 0.434985 2.71992 0.686531 2.91942L1.05937 2.44933C0.948414 2.36133 0.885449 2.23158 0.885449 2.09375H0.285449ZM0.688286 2.92081C1.64829 3.67061 1.96697 3.93848 6.1155 6.94905L6.4679 6.46345C2.32268 3.45527 2.01011 3.19189 1.05761 2.44794L0.688286 2.92081ZM6.11542 6.949C6.34973 7.11915 6.77861 7.47214 7.19749 7.75061C7.41374 7.89438 7.64472 8.03103 7.87487 8.13163C8.10213 8.23096 8.34863 8.30413 8.59062 8.29996L8.58028 7.70004C8.45977 7.70212 8.30392 7.66435 8.11517 7.58185C7.9293 7.50061 7.73059 7.38453 7.52966 7.25095C7.11417 6.97473 6.75867 6.6746 6.46798 6.4635L6.11542 6.949Z" fill="#1C3E55" mask="url(#path-1-inside-1)"/>
<g opacity="0.9">
<mask id="path-3-inside-2" fill="white">
<path d="M8.58545 8C9.31045 8.0125 10.3542 7.0875 10.8792 6.70625C15.0261 3.69688 15.3417 3.43437 16.2979 2.68437C16.4792 2.54375 16.5854 2.325 16.5854 2.09375V1.5C16.5854 0.671875 15.9136 0 15.0854 0H2.08545C1.25732 0 0.585449 0.671875 0.585449 1.5V2.09375C0.585449 2.325 0.691699 2.54062 0.872949 2.68437C1.8292 3.43125 2.14482 3.69688 6.2917 6.70625C6.8167 7.0875 7.86045 8.0125 8.58545 8Z"/>
</mask>
<path d="M8.58545 8C9.31045 8.0125 10.3542 7.0875 10.8792 6.70625C15.0261 3.69688 15.3417 3.43437 16.2979 2.68437C16.4792 2.54375 16.5854 2.325 16.5854 2.09375V1.5C16.5854 0.671875 15.9136 0 15.0854 0H2.08545C1.25732 0 0.585449 0.671875 0.585449 1.5V2.09375C0.585449 2.325 0.691699 2.54062 0.872949 2.68437C1.8292 3.43125 2.14482 3.69688 6.2917 6.70625C6.8167 7.0875 7.86045 8.0125 8.58545 8Z" fill="#E1EEFB"/>
<path d="M8.58545 8L8.59062 7.69987L8.58028 7.70004L8.58545 8ZM10.8792 6.70625L10.703 6.46345L10.7029 6.4635L10.8792 6.70625ZM16.2979 2.68437L16.114 2.44735L16.1128 2.44832L16.2979 2.68437ZM2.08545 0V0.3V0ZM0.872949 2.68437L0.686526 2.91943L0.688286 2.92081L0.872949 2.68437ZM6.2917 6.70625L6.46798 6.4635L6.4679 6.46345L6.2917 6.70625ZM8.58028 8.29996C8.82227 8.30413 9.06877 8.23096 9.29603 8.13163C9.52617 8.03103 9.75716 7.89438 9.97341 7.75061C10.3923 7.47214 10.8212 7.11915 11.0555 6.949L10.7029 6.4635C10.4122 6.6746 10.0567 6.97473 9.64124 7.25095C9.44031 7.38453 9.2416 7.50061 9.05573 7.58185C8.86697 7.66435 8.71113 7.70212 8.59062 7.70004L8.58028 8.29996ZM11.0554 6.94905C15.2036 3.93875 15.5226 3.67376 16.4831 2.92043L16.1128 2.44832C15.1608 3.19499 14.8486 3.455 10.703 6.46345L11.0554 6.94905ZM16.4818 2.9214C16.7373 2.72322 16.8854 2.4165 16.8854 2.09375H16.2854C16.2854 2.2335 16.2211 2.36428 16.114 2.44735L16.4818 2.9214ZM16.8854 2.09375V1.5H16.2854V2.09375H16.8854ZM16.8854 1.5C16.8854 0.50619 16.0793 -0.3 15.0854 -0.3V0.3C15.7479 0.3 16.2854 0.83756 16.2854 1.5H16.8854ZM15.0854 -0.3H2.08545V0.3H15.0854V-0.3ZM2.08545 -0.3C1.09164 -0.3 0.285449 0.50619 0.285449 1.5H0.885449C0.885449 0.83756 1.42301 0.3 2.08545 0.3V-0.3ZM0.285449 1.5V2.09375H0.885449V1.5H0.285449ZM0.285449 2.09375C0.285449 2.41842 0.434985 2.71992 0.686531 2.91942L1.05937 2.44933C0.948414 2.36133 0.885449 2.23158 0.885449 2.09375H0.285449ZM0.688286 2.92081C1.64829 3.67061 1.96697 3.93848 6.1155 6.94905L6.4679 6.46345C2.32268 3.45527 2.01011 3.19189 1.05761 2.44794L0.688286 2.92081ZM6.11542 6.949C6.34973 7.11915 6.77861 7.47214 7.19749 7.75061C7.41374 7.89438 7.64472 8.03103 7.87487 8.13163C8.10213 8.23096 8.34863 8.30413 8.59062 8.29996L8.58028 7.70004C8.45977 7.70212 8.30392 7.66435 8.11517 7.58185C7.9293 7.50061 7.73059 7.38453 7.52966 7.25095C7.11417 6.97473 6.75867 6.6746 6.46798 6.4635L6.11542 6.949Z" fill="#1C3E55" mask="url(#path-3-inside-2)"/>
</g>
</svg>
