<svg width="12" height="16" viewBox="0 0 12 16" fill="none" xmlns="http://www.w3.org/2000/svg">
<path d="M11.6854 3.74003V3.76754H8.23545V0.317542H8.26296C8.40965 0.317542 8.55036 0.375828 8.6541 0.479547L11.5234 3.34889C11.6272 3.45264 11.6854 3.59333 11.6854 3.74003ZM7.85107 5.00504H11.6854V14.4644C11.6854 14.7699 11.4378 15.0175 11.1323 15.0175H1.28857C0.983087 15.0175 0.735449 14.7699 0.735449 14.4644V0.870667C0.735449 0.565179 0.983087 0.317542 1.28857 0.317542H6.99795V4.15192C6.99795 4.62148 7.38151 5.00504 7.85107 5.00504ZM9.87053 7.9642L9.04527 7.13224C8.85021 6.93559 8.53264 6.93428 8.33598 7.12939C8.33597 7.12939 8.33597 7.12939 8.33597 7.1294L5.33591 10.1053L4.09448 8.85384C3.89942 8.65719 3.58181 8.65588 3.38515 8.85099C3.38515 8.851 3.38515 8.851 3.38514 8.851L2.55321 9.67628C2.35656 9.87135 2.35526 10.1889 2.55037 10.3856L4.97031 12.8251C5.16538 13.0218 5.48295 13.0231 5.67961 12.828C5.67962 12.8279 5.67962 12.8279 5.67962 12.8279L9.86769 8.67351C10.0643 8.47845 10.0656 8.16087 9.87054 7.96421C9.87053 7.96421 9.87053 7.9642 9.87053 7.9642Z" fill="#5A8CAE" stroke="#1C3E55" stroke-width="0.3"/>
<path d="M7.85107 5.00504H11.6854V14.4644C11.6854 14.7699 11.4378 15.0175 11.1323 15.0175H1.28857C0.983087 15.0175 0.735449 14.7699 0.735449 14.4644V0.870667C0.735449 0.565179 0.983087 0.317542 1.28857 0.317542H6.99795V4.15192C6.99795 4.62148 7.38151 5.00504 7.85107 5.00504ZM9.87053 7.9642L9.04527 7.13224C8.85021 6.93559 8.53264 6.93428 8.33597 7.12939C8.33597 7.12939 8.33597 7.12939 8.33597 7.1294L5.33591 10.1053L4.09448 8.85384C3.89942 8.65719 3.58181 8.65588 3.38515 8.85099C3.38515 8.851 3.38515 8.851 3.38514 8.851L2.55321 9.67628C2.35656 9.87135 2.35526 10.1889 2.55037 10.3856L4.97031 12.8251C5.16538 13.0218 5.48295 13.0231 5.67961 12.8279C5.67962 12.8279 5.67962 12.8279 5.67962 12.8279L9.86769 8.67351C10.0643 8.47845 10.0656 8.16087 9.87054 7.96421C9.87053 7.96421 9.87053 7.9642 9.87053 7.9642Z" fill="#E1EEFB" stroke="#1C3E55" stroke-width="0.3"/>
</svg>
