<svg width="10" height="16" viewBox="0 0 10 16" fill="none" xmlns="http://www.w3.org/2000/svg">
<g clip-path="url(#clip0)">
<path d="M6.79314 7.26025L3.38592 6.2876C2.92303 6.15576 2.54803 5.78369 2.47478 5.30615C2.36053 4.56201 2.93768 3.91748 3.66131 3.91748H5.82342C6.28924 3.91748 6.74627 4.06397 7.1242 4.33057C7.3117 4.4624 7.56365 4.44189 7.72478 4.28076L8.39568 3.60986C8.5949 3.41064 8.57439 3.07666 8.35174 2.90381C7.6281 2.34424 6.7492 2.04248 5.82342 2.04248H5.74139V0.63623C5.74139 0.378418 5.53045 0.16748 5.27264 0.16748H4.33514C4.07732 0.16748 3.86639 0.378418 3.86639 0.63623V2.04248H3.79314C2.35174 2.04248 1.02166 2.97412 0.675957 4.37451C0.26873 6.021 1.26775 7.63232 2.81463 8.07471L6.22185 9.04736C6.68475 9.1792 7.05975 9.55127 7.13299 10.0288C7.24725 10.7729 6.6701 11.4175 5.94646 11.4175H3.78435C3.31853 11.4175 2.8615 11.271 2.48357 11.0044C2.29607 10.8726 2.04412 10.8931 1.88299 11.0542L1.21209 11.7251C1.01287 11.9243 1.03338 12.2583 1.25603 12.4312C1.97674 12.9907 2.85564 13.2925 3.78435 13.2925H3.86639V14.6987C3.86639 14.9565 4.07732 15.1675 4.33514 15.1675H5.27264C5.53045 15.1675 5.74139 14.9565 5.74139 14.6987V13.2925H5.81463C7.25603 13.2925 8.58611 12.3608 8.93182 10.9604C9.33904 9.31396 8.34002 7.70264 6.79314 7.26025Z" fill="#E1EEFB"/>
</g>
<defs>
<clipPath id="clip0">
<rect width="8.4375" height="15" fill="white" transform="translate(0.585449 0.16748)"/>
</clipPath>
</defs>
</svg>
