<svg width="16" height="16" viewBox="0 0 16 16" fill="none" xmlns="http://www.w3.org/2000/svg">
<circle cx="8.08545" cy="7.66748" r="5" stroke="#4D7793" stroke-width="3"/>
<path d="M8.08545 15.1675C12.2276 15.1675 15.5854 11.8096 15.5854 7.66748C15.5854 3.52533 12.2276 0.16748 8.08545 0.16748C3.9433 0.16748 0.585449 3.52533 0.585449 7.66748C0.585449 11.8096 3.9433 15.1675 8.08545 15.1675ZM4.95849 12.8473L6.57375 11.2321C7.53562 11.6405 8.63407 11.641 9.59715 11.2321L11.2124 12.8473C9.3006 14.0062 6.8703 14.0062 4.95849 12.8473ZM10.5048 7.66748C10.5048 9.00151 9.41948 10.0868 8.08545 10.0868C6.75142 10.0868 5.66609 9.00151 5.66609 7.66748C5.66609 6.33345 6.75142 5.24813 8.08545 5.24813C9.41948 5.24813 10.5048 6.33345 10.5048 7.66748ZM13.2653 10.7944L11.65 9.17918C12.0585 8.21731 12.059 7.11886 11.65 6.15578L13.2653 4.54052C14.4241 6.45233 14.4241 8.88263 13.2653 10.7944ZM11.2124 2.48764L9.59712 4.10289C8.63525 3.69448 7.5368 3.69396 6.57375 4.10289L4.95849 2.48764C6.8703 1.3288 9.3006 1.3288 11.2124 2.48764ZM2.90561 4.54052L4.52086 6.15578C4.11241 7.11765 4.11193 8.2161 4.52086 9.17918L2.90561 10.7944C1.74677 8.88263 1.74677 6.45233 2.90561 4.54052Z" fill="#E1EEFB"/>
</svg>
