<svg width="15" height="16" viewBox="0 0 15 16" fill="none" 
  xmlns="http://www.w3.org/2000/svg">
  <path d="M7.82129 7.25L7.82129 2.7173L7.82129 1.78257C7.82129 1.64468 7.70925 1.53264 7.57136 1.53264L6.57122 1.53264C6.43333 1.53264 6.32129 1.64468 6.32129 1.78257L6.32129 7.25L0.853637 7.24978C0.715747 7.24978 0.603711 7.36182 0.603711 7.49971L0.60349 8.50007C0.60349 8.63796 0.715526 8.75 0.853416 8.75L6.32129 8.75L6.32107 14.2177C6.32107 14.3555 6.4331 14.4676 6.57099 14.4676L7.57114 14.4676C7.70903 14.4676 7.82107 14.3555 7.82107 14.2177L7.82129 8.75L12.354 8.75L13.2887 8.75C13.4266 8.75 13.5386 8.63796 13.5386 8.50007V7.49993C13.5386 7.36204 13.4266 7.25 13.2887 7.25L7.82129 7.25Z" fill="white" />
</svg>