<svg width="12" height="16" viewBox="0 0 12 16" fill="none" 
  xmlns="http://www.w3.org/2000/svg">
  <path d="M1.09899 2.95881C1.72038 2.06592 2.42 1.3788 3.26104 0.913841C4.10129 0.449313 5.09448 0.2 6.31317 0.2C7.59019 0.2 8.91667 0.699623 9.92239 1.53062C10.9273 2.3609 11.597 3.50832 11.597 4.8C11.597 5.66697 11.3638 6.31042 11.0203 6.81201C10.6745 7.31686 10.2098 7.6884 9.73088 7.99887C9.49664 8.15072 9.26188 8.2862 9.0364 8.41632L9.021 8.42521C8.79306 8.55676 8.57219 8.68456 8.38135 8.81467C8.01122 9.06702 7.68236 9.37427 7.68236 9.81959V10C7.68236 10.3038 7.43612 10.55 7.13236 10.55H4.86764C4.56388 10.55 4.31764 10.3038 4.31764 10V9.69413C4.31764 7.9267 5.61481 7.20015 6.72591 6.57781C6.74644 6.56631 6.7669 6.55485 6.78729 6.54342C7.25731 6.27991 7.66226 6.04511 7.94702 5.78084C8.24183 5.50723 8.42051 5.19049 8.42051 4.77009C8.42051 4.21068 8.06354 3.76888 7.61474 3.4773C7.1644 3.18473 6.58884 3.01912 6.07001 3.01912C5.42354 3.01912 4.93321 3.16966 4.50107 3.45758C4.07683 3.74023 3.71927 4.14889 3.32755 4.63964L3.48386 4.76441L3.32755 4.63964C3.1415 4.87272 2.80327 4.91491 2.56554 4.73466L1.21748 3.71251C0.982322 3.5342 0.929943 3.20171 1.09899 2.95881ZM4.03529 13.8353C4.03529 12.7521 4.91685 11.8706 6.00001 11.8706C7.08319 11.8706 7.96473 12.7521 7.96473 13.8353C7.96473 14.9184 7.08318 15.8 6.00001 15.8C4.91684 15.8 4.03529 14.9184 4.03529 13.8353Z" fill="white" stroke="#3A8DDE" strokeWidth="0.4" />
</svg>