<svg width="14" height="14" viewBox="0 0 14 14" fill="none" xmlns="http://www.w3.org/2000/svg">
<path d="M13.7812 7C13.7812 10.746 10.7449 13.7812 7 13.7812C3.25508 13.7812 0.21875 10.746 0.21875 7C0.21875 3.25618 3.25508 0.21875 7 0.21875C10.7449 0.21875 13.7812 3.25618 13.7812 7ZM7.18197 2.46094C5.69182 2.46094 4.74141 3.08867 3.99509 4.20432C3.8984 4.34886 3.93075 4.54379 4.06932 4.64888L5.01813 5.36829C5.16045 5.47621 5.36323 5.45054 5.47381 5.31027C5.96228 4.69071 6.29721 4.33144 7.04069 4.33144C7.59929 4.33144 8.29024 4.69096 8.29024 5.23264C8.29024 5.64214 7.95219 5.85244 7.40064 6.16167C6.75741 6.52225 5.90625 6.97104 5.90625 8.09375V8.20312C5.90625 8.38433 6.05317 8.53125 6.23438 8.53125H7.76562C7.94683 8.53125 8.09375 8.38433 8.09375 8.20312V8.16668C8.09375 7.38842 10.3684 7.35602 10.3684 5.25C10.3684 3.66401 8.72323 2.46094 7.18197 2.46094ZM7 9.24219C6.30643 9.24219 5.74219 9.80643 5.74219 10.5C5.74219 11.1935 6.30643 11.7578 7 11.7578C7.69357 11.7578 8.25781 11.1935 8.25781 10.5C8.25781 9.80643 7.69357 9.24219 7 9.24219Z" fill="#A9B0B0"/>
</svg>
