<svg width="16" height="12" viewBox="0 0 16 12" fill="none" 
  xmlns="http://www.w3.org/2000/svg">
  <path d="M15.5 10H2V0.5C2 0.22375 1.77625 0 1.5 0H0.5C0.22375 0 0 0.22375 0 0.5V11C0 11.5522 0.447812 12 1 12H15.5C15.7762 12 16 11.7762 16 11.5V10.5C16 10.2238 15.7762 10 15.5 10ZM14.5 1H10.8106C10.1425 1 9.80781 1.80781 10.2803 2.28031L11.2928 3.29281L9 5.58594L6.70719 3.29313C6.31656 2.9025 5.68344 2.9025 5.29313 3.29313L3.14656 5.43969C2.95125 5.635 2.95125 5.95156 3.14656 6.14688L3.85344 6.85375C4.04875 7.04906 4.36531 7.04906 4.56063 6.85375L6 5.41406L8.29281 7.70687C8.68344 8.0975 9.31656 8.0975 9.70687 7.70687L12.7069 4.70687L13.7194 5.71938C14.1919 6.19187 14.9997 5.85719 14.9997 5.18906V1.5C15 1.22375 14.7762 1 14.5 1Z" fill="#A9B0B0" />
</svg>