<svg width="10" height="10" viewBox="0 0 10 10" fill="none" xmlns="http://www.w3.org/2000/svg">
<path d="M6.24123 3.73075C7.29147 4.78208 7.27705 6.46763 6.24756 7.50284C6.24562 7.50494 6.24334 7.50723 6.24123 7.50934L5.05998 8.69059C4.01812 9.73244 2.32309 9.7323 1.28139 8.69059C0.239536 7.64891 0.239536 5.95368 1.28139 4.912L1.93364 4.25975C2.10661 4.08678 2.40449 4.20174 2.41342 4.44618C2.42481 4.7577 2.48067 5.07068 2.58375 5.37292C2.61866 5.47526 2.59372 5.58846 2.51725 5.66492L2.28721 5.89497C1.79457 6.38761 1.77911 7.18977 2.26691 7.68723C2.75952 8.18959 3.5692 8.19258 4.06559 7.69619L5.24683 6.51512C5.74238 6.01958 5.7403 5.21862 5.24683 4.72515C5.18178 4.66021 5.11625 4.60976 5.06506 4.57452C5.02885 4.54965 4.99895 4.51667 4.97775 4.47819C4.95654 4.43972 4.94463 4.39683 4.94294 4.35293C4.93598 4.16718 5.0018 3.97577 5.14857 3.829L5.51866 3.45889C5.61571 3.36184 5.76795 3.34992 5.88049 3.42846C6.00937 3.51845 6.13008 3.61961 6.24123 3.73075ZM8.7186 1.25326C7.6769 0.211548 5.98186 0.211408 4.94001 1.25326L3.75876 2.43451C3.75665 2.43662 3.75437 2.4389 3.75243 2.44101C2.72295 3.47622 2.70852 5.16177 3.75876 6.2131C3.8699 6.32424 3.99061 6.42538 4.11948 6.51537C4.23202 6.59391 4.38428 6.58197 4.48131 6.48494L4.8514 6.11483C4.99817 5.96806 5.06399 5.77665 5.05703 5.5909C5.05534 5.54701 5.04343 5.50411 5.02222 5.46564C5.00102 5.42716 4.97112 5.39418 4.93491 5.36931C4.88372 5.33407 4.81819 5.28362 4.75314 5.21869C4.25967 4.72522 4.25759 3.92425 4.75314 3.42871L5.93438 2.24764C6.43077 1.75125 7.24044 1.75424 7.73306 2.2566C8.22086 2.75406 8.20542 3.55622 7.71276 4.04886L7.48272 4.27891C7.40625 4.35537 7.38131 4.46858 7.41622 4.57092C7.5193 4.87315 7.57516 5.18613 7.58655 5.49765C7.5955 5.74209 7.89336 5.85705 8.06633 5.68408L8.71858 5.03183C9.76045 3.99017 9.76045 2.29494 8.7186 1.25326Z" fill="#3A8DDE"/>
</svg>
