<svg width="16" height="14" viewBox="0 0 16 14" fill="none" 
  xmlns="http://www.w3.org/2000/svg">
  <path d="M5.96095 2.9578C5.84703 3.02942 5.74727 3.11652 5.66305 3.21504L4.98683 3.62779L3.63145 4.45507C3.03054 4.81931 2.66922 5.47556 2.66922 6.17368V6.8054L1.31947 7.59713C1.31926 7.59726 1.31905 7.59738 1.31884 7.5975C0.689242 7.96577 0.477352 8.77656 0.838172 9.40794C0.838378 9.4083 0.838585 9.40866 0.838791 9.40902L2.5091 12.3483C2.50918 12.3484 2.50925 12.3486 2.50933 12.3487C2.87108 12.987 3.68183 13.208 4.31585 12.8376L4.31679 12.8371L6.3254 11.6591H9.00359C9.88786 11.6591 10.6284 11.0778 10.89 10.2833C11.5232 10.1797 11.9942 9.6246 11.9942 8.97136V8.15705C12.2752 8.02664 12.4925 7.78595 12.5962 7.49323L13.0106 7.25015L14.6825 6.26948L14.6842 6.26843C15.3127 5.8971 15.5201 5.09027 15.1637 4.46091L15.1632 4.46006L13.4918 1.51888C13.4917 1.5186 13.4915 1.51831 13.4913 1.51802C13.1295 0.880053 12.3189 0.659265 11.6851 1.02957L11.6841 1.03012L9.67553 2.20805H7.71625C7.33989 2.20805 6.97614 2.31649 6.66236 2.51334L6.66236 2.51333L6.65987 2.51491L5.96095 2.9578Z" fill="white" />
  <path d="M5.96095 2.9578C5.84703 3.02942 5.74727 3.11652 5.66305 3.21504L4.98683 3.62779L3.63145 4.45507C3.03054 4.81931 2.66922 5.47556 2.66922 6.17368V6.8054L1.31947 7.59713C1.31926 7.59726 1.31905 7.59738 1.31884 7.5975C0.689242 7.96577 0.477352 8.77656 0.838172 9.40794C0.838378 9.4083 0.838585 9.40866 0.838791 9.40902L2.5091 12.3483C2.50918 12.3484 2.50925 12.3486 2.50933 12.3487C2.87108 12.987 3.68183 13.208 4.31585 12.8376L4.31679 12.8371L6.3254 11.6591H9.00359C9.88786 11.6591 10.6284 11.0778 10.89 10.2833C11.5232 10.1797 11.9942 9.6246 11.9942 8.97136V8.15705C12.2752 8.02664 12.4925 7.78595 12.5962 7.49323L13.0106 7.25015L14.6825 6.26948L14.6842 6.26843C15.3127 5.8971 15.5201 5.09027 15.1637 4.46091L15.1632 4.46006L13.4918 1.51888C13.4917 1.5186 13.4915 1.51831 13.4913 1.51802C13.1295 0.880053 12.3189 0.659265 11.6851 1.02957L11.6841 1.03012L9.67553 2.20805H7.71625C7.33989 2.20805 6.97614 2.31649 6.66236 2.51334L6.66236 2.51333L6.65987 2.51491L5.96095 2.9578Z" fill="#9FCCF3" fillOpacity="0.9" />
  <path d="M5.96095 2.9578C5.84703 3.02942 5.74727 3.11652 5.66305 3.21504L4.98683 3.62779L3.63145 4.45507C3.03054 4.81931 2.66922 5.47556 2.66922 6.17368V6.8054L1.31947 7.59713C1.31926 7.59726 1.31905 7.59738 1.31884 7.5975C0.689242 7.96577 0.477352 8.77656 0.838172 9.40794C0.838378 9.4083 0.838585 9.40866 0.838791 9.40902L2.5091 12.3483C2.50918 12.3484 2.50925 12.3486 2.50933 12.3487C2.87108 12.987 3.68183 13.208 4.31585 12.8376L4.31679 12.8371L6.3254 11.6591H9.00359C9.88786 11.6591 10.6284 11.0778 10.89 10.2833C11.5232 10.1797 11.9942 9.6246 11.9942 8.97136V8.15705C12.2752 8.02664 12.4925 7.78595 12.5962 7.49323L13.0106 7.25015L14.6825 6.26948L14.6842 6.26843C15.3127 5.8971 15.5201 5.09027 15.1637 4.46091L15.1632 4.46006L13.4918 1.51888C13.4917 1.5186 13.4915 1.51831 13.4913 1.51802C13.1295 0.880053 12.3189 0.659265 11.6851 1.02957L11.6841 1.03012L9.67553 2.20805H7.71625C7.33989 2.20805 6.97614 2.31649 6.66236 2.51334L6.66236 2.51333L6.65987 2.51491L5.96095 2.9578Z" stroke="#3A8DDE" strokeWidth="1.3" />
  <path d="M8.33484 4.92509H7.68484V5.57509V6.76379C7.68484 7.2571 7.29132 7.64212 6.83015 7.64212C6.36899 7.64212 5.97547 7.2571 5.97547 6.76379V4.18262V3.02437L4.98683 3.6278L3.63147 4.45507C3.03055 4.81931 2.66922 5.47556 2.66922 6.17369V6.80542L1.31947 7.59715C1.31926 7.59727 1.31904 7.5974 1.31882 7.59753C0.689259 7.96579 0.477371 8.77652 0.838134 9.40788C0.838353 9.40827 0.838572 9.40865 0.838791 9.40903L2.5091 12.3483C2.50923 12.3486 2.50937 12.3488 2.5095 12.349C2.50953 12.3491 2.50956 12.3491 2.50959 12.3492C2.87146 12.9871 3.68198 13.2079 4.31585 12.8376L4.31679 12.8371L6.3254 11.6591H9.00359C9.88786 11.6591 10.6284 11.0778 10.89 10.2833C11.5232 10.1797 11.9942 9.62461 11.9942 8.97138V8.15707C12.3925 7.97217 12.663 7.56563 12.663 7.10342V6.08454C12.663 5.45282 12.1578 4.92509 11.5114 4.92509H8.33484Z" fill="white" stroke="#3A8DDE" strokeWidth="1.3" />
</svg>