<svg width="12" height="12" viewBox="0 0 12 12" fill="none" 
  xmlns="http://www.w3.org/2000/svg">
  <path d="M11.4234 7.39922L10.425 6.82265C10.5258 6.2789 10.5258 5.72109 10.425 5.17734L11.4234 4.60078C11.5383 4.53515 11.5898 4.39922 11.5523 4.27265C11.2922 3.43828 10.8492 2.68359 10.2703 2.05547C10.1812 1.95937 10.0359 1.93594 9.92342 2.00156L8.92498 2.57812C8.50545 2.21719 8.02264 1.93828 7.49998 1.75547V0.604685C7.49998 0.473435 7.40858 0.358591 7.27967 0.330466C6.41952 0.138279 5.53827 0.147654 4.7203 0.330466C4.59139 0.358591 4.49998 0.473435 4.49998 0.604685V1.75781C3.97967 1.94297 3.49686 2.22187 3.07498 2.58047L2.07889 2.0039C1.96405 1.93828 1.82108 1.95937 1.73202 2.05781C1.15311 2.68359 0.710141 3.43828 0.449985 4.275C0.410141 4.40156 0.464047 4.5375 0.578891 4.60312L1.57733 5.17968C1.47655 5.72343 1.47655 6.28125 1.57733 6.825L0.578891 7.40156C0.464047 7.46718 0.412485 7.60312 0.449985 7.72968C0.710141 8.56406 1.15311 9.31875 1.73202 9.94687C1.82108 10.043 1.96639 10.0664 2.07889 10.0008L3.07733 9.42422C3.49686 9.78515 3.97967 10.0641 4.50233 10.2469V11.4C4.50233 11.5312 4.59373 11.6461 4.72264 11.6742C5.5828 11.8664 6.46405 11.857 7.28202 11.6742C7.41092 11.6461 7.50233 11.5312 7.50233 11.4V10.2469C8.02264 10.0617 8.50545 9.78281 8.92733 9.42422L9.92577 10.0008C10.0406 10.0664 10.1836 10.0453 10.2726 9.94687C10.8515 9.32109 11.2945 8.5664 11.5547 7.72968C11.5898 7.60078 11.5383 7.46484 11.4234 7.39922ZM5.99998 7.875C4.96639 7.875 4.12498 7.03359 4.12498 6C4.12498 4.9664 4.96639 4.125 5.99998 4.125C7.03358 4.125 7.87498 4.9664 7.87498 6C7.87498 7.03359 7.03358 7.875 5.99998 7.875Z" fill="#3A8DDE" />
</svg>