<svg width="16" height="16" viewBox="0 0 16 16" fill="none" 
  xmlns="http://www.w3.org/2000/svg">
  <path d="M15.6864 13.8137L12.2894 10.4348L11.8897 10.8323L10.4909 9.44099C11.2902 8.4472 11.6899 7.25466 11.6899 5.86335C11.6899 2.58385 9.09213 0 5.8949 0C2.69767 0 0 2.58385 0 5.86335C0 9.14286 2.59775 11.7267 5.8949 11.7267C7.29369 11.7267 8.49265 11.2298 9.49179 10.5342L10.8906 11.9255L10.4909 12.323L13.888 15.7019C14.2876 16.0994 14.987 16.0994 15.4866 15.7019L15.7863 15.4037C16.0861 14.9068 16.0861 14.2112 15.6864 13.8137ZM5.8949 10.236C3.49697 10.236 1.4987 8.24845 1.4987 5.86335C1.4987 3.47826 3.49697 1.49068 5.8949 1.49068C8.29283 1.49068 10.2911 3.47826 10.2911 5.86335C10.2911 8.24845 8.29283 10.236 5.8949 10.236Z" fill="#8B9293" />
</svg>