<svg width="17" height="16" viewBox="0 0 17 16" fill="none" 
  xmlns="http://www.w3.org/2000/svg">
  <path d="M0.260679 15.7331L0.148602 15.8325L0.260678 15.7331C0.191458 15.6551 0.15 15.5458 0.15 15.4286V14.2857C0.15 14.1685 0.191458 14.0592 0.260678 13.9812L0.148465 13.8817L0.260679 13.9812C0.32938 13.9037 0.418432 13.8643 0.506889 13.8643H4.4086C4.49706 13.8643 4.58611 13.9037 4.65481 13.9812C4.72403 14.0592 4.76549 14.1685 4.76549 14.2857V15.4286C4.76549 15.5458 4.72403 15.6551 4.65481 15.7331C4.58611 15.8105 4.49706 15.85 4.4086 15.85H0.506889C0.418433 15.85 0.329381 15.8105 0.260679 15.7331ZM0.506889 4.72143H10.6986C10.7871 4.72143 10.8761 4.76089 10.9448 4.83834C11.0141 4.91637 11.0555 5.02567 11.0555 5.14286V6.28571C11.0555 6.4029 11.0141 6.5122 10.9448 6.59024C10.8761 6.66769 10.7871 6.70714 10.6986 6.70714H0.506889C0.418434 6.70714 0.329381 6.66769 0.260679 6.59024C0.191458 6.5122 0.15 6.4029 0.15 6.28571V5.14286C0.15 5.02567 0.191458 4.91637 0.260678 4.83834C0.329381 4.76089 0.418434 4.72143 0.506889 4.72143ZM0.506889 9.29286H7.55362C7.64207 9.29286 7.73113 9.33231 7.79983 9.40976C7.86905 9.4878 7.91051 9.5971 7.91051 9.71429V10.8571C7.91051 10.9743 7.86905 11.0836 7.79983 11.1617C7.73113 11.2391 7.64207 11.2786 7.55362 11.2786H0.506889C0.418433 11.2786 0.329381 11.2391 0.260678 11.1617C0.191458 11.0836 0.15 10.9743 0.15 10.8571V9.71429C0.15 9.5971 0.191458 9.4878 0.260678 9.40976C0.329381 9.33231 0.418434 9.29286 0.506889 9.29286ZM0.506889 0.15H16.255C16.3435 0.15 16.4325 0.189457 16.5012 0.266907C16.5704 0.344942 16.6119 0.454242 16.6119 0.571429V1.71429C16.6119 1.83147 16.5704 1.94077 16.5012 2.01881C16.4325 2.09626 16.3435 2.13571 16.255 2.13571H0.506889C0.418433 2.13571 0.329381 2.09626 0.260678 2.01881C0.191458 1.94077 0.15 1.83147 0.15 1.71429V0.571429C0.15 0.454242 0.191458 0.344941 0.260678 0.266907C0.329381 0.189457 0.418433 0.15 0.506889 0.15Z" fill="#A9B0B0" stroke="white" strokeWidth="0.3" />
</svg>