<svg width="12" height="12" viewBox="0 0 12 12" fill="none" xmlns="http://www.w3.org/2000/svg">
<path d="M10.875 0.750004H8.0625L7.84219 0.311723C7.79552 0.218023 7.72363 0.139205 7.6346 0.084135C7.54558 0.0290653 7.44296 -7.09679e-05 7.33828 4.10923e-06H4.65937C4.55493 -0.000397388 4.45249 0.0286302 4.36378 0.0837612C4.27507 0.138892 4.20369 0.217897 4.15781 0.311723L3.9375 0.750004H1.125C1.02554 0.750004 0.930161 0.789513 0.859835 0.859839C0.789509 0.930165 0.75 1.02555 0.75 1.125L0.75 1.875C0.75 1.97446 0.789509 2.06984 0.859835 2.14017C0.930161 2.21049 1.02554 2.25 1.125 2.25H10.875C10.9745 2.25 11.0698 2.21049 11.1402 2.14017C11.2105 2.06984 11.25 1.97446 11.25 1.875V1.125C11.25 1.02555 11.2105 0.930165 11.1402 0.859839C11.0698 0.789513 10.9745 0.750004 10.875 0.750004ZM1.99687 10.9453C2.01476 11.2309 2.14082 11.499 2.34939 11.6949C2.55796 11.8909 2.83336 12 3.11953 12H8.88047C9.16664 12 9.44204 11.8909 9.65061 11.6949C9.85918 11.499 9.98524 11.2309 10.0031 10.9453L10.5 3H1.5L1.99687 10.9453Z" fill="#8B9293"/>
</svg>
