<svg width="12" height="12" viewBox="0 0 12 12" fill="none" 
  xmlns="http://www.w3.org/2000/svg">
  <path d="M4.97655 5.2578H0.28125C0.12593 5.2578 0 5.13188 0 4.97655V0.28125C0 0.12593 0.12593 0 0.28125 0H1.40625C1.56157 0 1.6875 0.12593 1.6875 0.28125V2.112C2.7603 0.920602 4.31859 0.175078 6.05098 0.187664C9.25971 0.210961 11.8271 2.80383 11.8203 6.01263C11.8135 9.21698 9.21375 11.8125 6.00781 11.8125C4.50572 11.8125 3.1368 11.2427 2.10523 10.3075C1.98572 10.1991 1.98021 10.0132 2.09428 9.89918L2.89038 9.10308C2.99524 8.99822 3.16371 8.99252 3.27478 9.09077C4.00219 9.73444 4.95891 10.125 6.00781 10.125C8.28752 10.125 10.1328 8.28009 10.1328 6C10.1328 3.7203 8.2879 1.875 6.00781 1.875C4.63681 1.875 3.42312 2.54241 2.67326 3.5703H4.97655C5.13188 3.5703 5.2578 3.69623 5.2578 3.85155V4.97655C5.2578 5.13188 5.13188 5.2578 4.97655 5.2578Z" fill="#8B9293"/>
</svg>