<svg width="14" height="12" viewBox="0 0 14 12" fill="none" xmlns="http://www.w3.org/2000/svg">
<path d="M13.5625 9.5H1.75V1.1875C1.75 0.945781 1.55422 0.75 1.3125 0.75H0.4375C0.195781 0.75 0 0.945781 0 1.1875V10.375C0 10.8582 0.391836 11.25 0.875 11.25H13.5625C13.8042 11.25 14 11.0542 14 10.8125V9.9375C14 9.69578 13.8042 9.5 13.5625 9.5ZM12.6875 1.625H9.4593C8.87469 1.625 8.58184 2.33184 8.99527 2.74527L9.88121 3.63121L7.875 5.6377L5.86879 3.63148C5.52699 3.28969 4.97301 3.28969 4.63148 3.63148L2.75324 5.50973C2.58234 5.68062 2.58234 5.95762 2.75324 6.12852L3.37176 6.74703C3.54266 6.91793 3.81965 6.91793 3.99055 6.74703L5.25 5.4873L7.25621 7.49352C7.59801 7.83531 8.15199 7.83531 8.49352 7.49352L11.1185 4.86852L12.0045 5.75445C12.4179 6.16789 13.1247 5.87504 13.1247 5.29043V2.0625C13.125 1.82078 12.9292 1.625 12.6875 1.625Z" fill="#8B9293"/>
</svg>
