<svg width="12" height="14" viewBox="0 0 12 14" fill="none" xmlns="http://www.w3.org/2000/svg">
<path d="M6.46494 0.410156L11.0587 5.00391C11.4688 5.41406 11.1817 6.125 10.5938 6.125L7.96884 6.125L7.96884 9.84375C7.96884 10.2074 7.67626 10.5 7.31259 10.5L4.68759 10.5C4.32392 10.5 4.03134 10.2074 4.03134 9.84375L4.03134 6.125L1.40634 6.125C0.821187 6.125 0.531343 5.4168 0.941499 5.00391L5.53525 0.410156C5.79228 0.155859 6.2079 0.155859 6.46494 0.410156ZM10.922 8.75L9.82822 8.75C9.64775 8.75 9.50009 8.89766 9.50009 9.07812L9.50009 11.375C9.50009 11.859 9.10908 12.25 8.62509 12.25L3.37509 12.25C2.89111 12.25 2.50009 11.859 2.50009 11.375L2.50009 9.07812C2.50009 8.89766 2.35244 8.75 2.17197 8.75L1.07822 8.75C0.897749 8.75 0.750093 8.89766 0.750093 9.07812L0.750093 11.375C0.750093 12.8242 1.92587 14 3.37509 14L8.62509 14C10.0743 14 11.2501 12.8242 11.2501 11.375L11.2501 9.07812C11.2501 8.89766 11.1024 8.75 10.922 8.75Z" fill="#A9B0B0"/>
</svg>
