<svg width="14" height="13" viewBox="0 0 14 13" fill="none" xmlns="http://www.w3.org/2000/svg">
<path d="M13.3561 9.07136C13.413 8.75811 13.413 8.43818 13.3561 8.12493L13.9205 7.7939C13.9862 7.75613 14.0146 7.67837 13.9927 7.60505C13.8461 7.12517 13.5946 6.68972 13.2664 6.32981C13.2161 6.27427 13.1351 6.26094 13.0695 6.29871L12.5051 6.62974C12.2666 6.42312 11.9931 6.26316 11.6978 6.15652V5.49446C11.6978 5.41892 11.6453 5.35227 11.5731 5.33672C11.0852 5.22563 10.5886 5.23008 10.1248 5.33672C10.0526 5.35227 10.0001 5.41892 10.0001 5.49446V6.15652C9.70477 6.26316 9.43131 6.42312 9.19284 6.62974L8.62841 6.29871C8.56497 6.26094 8.48183 6.27427 8.43151 6.32981C8.10335 6.68972 7.85177 7.12517 7.70519 7.60505C7.68331 7.67837 7.71394 7.75613 7.77738 7.7939L8.34182 8.12493C8.28494 8.43818 8.28494 8.75811 8.34182 9.07136L7.77738 9.40239C7.71175 9.44016 7.68331 9.51792 7.70519 9.59124C7.85177 10.0711 8.10335 10.5043 8.43151 10.8665C8.48183 10.922 8.56278 10.9354 8.62841 10.8976L9.19284 10.5666C9.43131 10.7732 9.70477 10.9331 10.0001 11.0398V11.7018C10.0001 11.7774 10.0526 11.844 10.1248 11.8596C10.6127 11.9707 11.1093 11.9662 11.5731 11.8596C11.6453 11.844 11.6978 11.7774 11.6978 11.7018V11.0398C11.9931 10.9331 12.2666 10.7732 12.5051 10.5666L13.0695 10.8976C13.1329 10.9354 13.2161 10.922 13.2664 10.8665C13.5946 10.5066 13.8461 10.0711 13.9927 9.59124C14.0146 9.51792 13.984 9.44016 13.9205 9.40239L13.3561 9.07136ZM10.8511 9.67566C10.2648 9.67566 9.7901 9.19133 9.7901 8.59814C9.7901 8.00496 10.267 7.52063 10.8511 7.52063C11.4353 7.52063 11.9122 8.00496 11.9122 8.59814C11.9122 9.19133 11.4375 9.67566 10.8511 9.67566ZM4.90052 6.46533C6.44724 6.46533 7.70081 5.19231 7.70081 3.62158C7.70081 2.05085 6.44724 0.777832 4.90052 0.777832C3.35379 0.777832 2.10022 2.05085 2.10022 3.62158C2.10022 5.19231 3.35379 6.46533 4.90052 6.46533ZM9.30223 11.4974C9.25191 11.4708 9.2016 11.4397 9.15347 11.4108L8.98063 11.513C8.84937 11.5885 8.70061 11.6307 8.55184 11.6307C8.31338 11.6307 8.08366 11.5285 7.91959 11.3508C7.51923 10.9109 7.21295 10.3755 7.04012 9.80452C6.91979 9.41128 7.08168 8.99583 7.43172 8.78921L7.60455 8.68701C7.60236 8.62925 7.60236 8.57148 7.60455 8.51372L7.43172 8.41152C7.08168 8.20713 6.91979 7.78945 7.04012 7.39622C7.05981 7.33179 7.08825 7.26736 7.11013 7.20293C7.02699 7.19626 6.94605 7.17627 6.86072 7.17627H6.49537C6.0097 7.40288 5.46933 7.53174 4.90052 7.53174C4.33171 7.53174 3.79353 7.40288 3.30566 7.17627H2.94031C1.31701 7.17627 0 8.51372 0 10.1622V11.0864C0 11.6752 0.470362 12.1528 1.05011 12.1528H8.75092C8.97188 12.1528 9.17753 12.0817 9.34599 11.964C9.31973 11.8796 9.30223 11.7929 9.30223 11.7018V11.4974Z" fill="#8B9293"/>
</svg>
