<svg width="13" height="10" viewBox="0 0 13 10" fill="none" 
  xmlns="http://www.w3.org/2000/svg">
  <path d="M4.375 5C5.75586 5 6.875 3.88086 6.875 2.5C6.875 1.11914 5.75586 0 4.375 0C2.99414 0 1.875 1.11914 1.875 2.5C1.875 3.88086 2.99414 5 4.375 5ZM6.125 5.625H5.79883C5.36523 5.82422 4.88281 5.9375 4.375 5.9375C3.86719 5.9375 3.38672 5.82422 2.95117 5.625H2.625C1.17578 5.625 0 6.80078 0 8.25V9.0625C0 9.58008 0.419922 10 0.9375 10H7.8125C8.33008 10 8.75 9.58008 8.75 9.0625V8.25C8.75 6.80078 7.57422 5.625 6.125 5.625ZM12.4336 3.11719L11.8906 2.56836C11.8008 2.47656 11.6543 2.47656 11.5625 2.56641L9.51562 4.59766L8.62695 3.70312C8.53711 3.61133 8.39062 3.61133 8.29883 3.70117L7.75 4.24609C7.6582 4.33594 7.6582 4.48242 7.74805 4.57422L9.34375 6.18164C9.43359 6.27344 9.58008 6.27344 9.67188 6.18359L12.4316 3.44531C12.5215 3.35352 12.5234 3.20703 12.4336 3.11719Z" fill="#8B9293" />
</svg>