<svg width="18" height="12" viewBox="0 0 18 12" fill="none" 
  xmlns="http://www.w3.org/2000/svg">
  <path d="M17.8913 5.54376C16.1966 2.23719 12.8416 0 9 0C5.15843 0 1.80249 2.23875 0.108733 5.54407C0.0372461 5.68548 0 5.84172 0 6.00017C0 6.15862 0.0372461 6.31485 0.108733 6.45626C1.80342 9.76283 5.15843 12 9 12C12.8416 12 16.1975 9.76127 17.8913 6.45595C17.9628 6.31454 18 6.15831 18 5.99986C18 5.8414 17.9628 5.68517 17.8913 5.54376ZM9 10.5C8.10998 10.5 7.23995 10.2361 6.49993 9.74163C5.75991 9.24716 5.18313 8.54436 4.84253 7.72209C4.50194 6.89982 4.41282 5.99502 4.58646 5.1221C4.76009 4.24919 5.18868 3.44736 5.81801 2.81802C6.44735 2.18869 7.24918 1.7601 8.12209 1.58647C8.99501 1.41284 9.89981 1.50195 10.7221 1.84255C11.5443 2.18314 12.2472 2.75992 12.7416 3.49994C13.2361 4.23996 13.5 5.10999 13.5 6.00001C13.5003 6.59104 13.3841 7.17633 13.1581 7.72243C12.932 8.26853 12.6005 8.76472 12.1826 9.18264C11.7647 9.60056 11.2685 9.93202 10.7224 10.1581C10.1763 10.3841 9.59103 10.5003 9 10.5ZM9 3.00001C8.73223 3.00375 8.46618 3.04359 8.20906 3.11844C8.42101 3.40647 8.52271 3.76091 8.49574 4.11749C8.46876 4.47407 8.31489 4.80918 8.06203 5.06204C7.80917 5.3149 7.47406 5.46877 7.11748 5.49575C6.7609 5.52272 6.40646 5.42102 6.11843 5.20907C5.95442 5.81332 5.98403 6.45379 6.20308 7.04033C6.42214 7.62687 6.81961 8.12994 7.33956 8.47875C7.85951 8.82756 8.47575 9.00454 9.10155 8.98477C9.72735 8.965 10.3312 8.74948 10.8281 8.36855C11.325 7.98762 11.6899 7.46046 11.8715 6.86126C12.0531 6.26206 12.0422 5.621 11.8404 5.02831C11.6386 4.43562 11.256 3.92114 10.7465 3.55729C10.2369 3.19344 9.62611 2.99853 9 3.00001Z" fill="#A9B0B0" />
</svg>