<svg width="490" height="205" viewBox="0 0 490 205" fill="none" 
  xmlns="http://www.w3.org/2000/svg">
  <mask id="mask0" mask-type="alpha" maskUnits="userSpaceOnUse" x="0" y="0" width="490" height="205">
    <rect width="489.123" height="205" transform="matrix(-1 0 0 1 489.737 0)" fill="#C4C4C4" />
  </mask>
  <g mask="url(#mask0)">
    <path d="M405.283 39.4907H473.482V40.4561H405.283V39.4907Z" fill="#F2F2F2" />
    <path d="M453.997 30.8025H454.971V39.7322H453.997V30.8025Z" fill="#F2F2F2" />
    <path d="M424.282 30.8025H425.256V39.7322H424.282V30.8025Z" fill="#F2F2F2" />
    <path d="M222.123 12.9426H290.321V13.908H222.123V12.9426Z" fill="#F2F2F2" />
    <path d="M270.835 4.25427H271.81V13.184H270.835V4.25427Z" fill="#F2F2F2" />
    <path d="M241.12 4.25427H242.094V13.184H241.12V4.25427Z" fill="#F2F2F2" />
    <path d="M41.3971 127.823H109.596V128.788H41.3971V127.823Z" fill="#F2F2F2" />
    <path d="M90.1096 119.135H91.084V128.065H90.1096V119.135Z" fill="#F2F2F2" />
    <path d="M60.3939 119.135H61.3683V128.065H60.3939V119.135Z" fill="#F2F2F2" />
    <path d="M283.501 138.442H351.699V139.407H283.501V138.442Z" fill="#F2F2F2" />
    <path d="M332.214 129.753H333.188V138.683H332.214V129.753Z" fill="#F2F2F2" />
    <path d="M302.499 129.753H303.473V138.683H302.499V129.753Z" fill="#F2F2F2" />
    <path d="M162.691 202.158H163.666V211.087H162.691V202.158Z" fill="#F2F2F2" />
    <path d="M132.977 202.158H133.951V211.087H132.977V202.158Z" fill="#F2F2F2" />
    <path d="M209.944 180.436H278.142V181.401H209.944V180.436Z" fill="#F2F2F2" />
    <path d="M258.658 171.748H259.632V180.678H258.658V171.748Z" fill="#F2F2F2" />
    <path d="M228.942 171.748H229.916V180.678H228.942V171.748Z" fill="#F2F2F2" />
    <path d="M302.986 84.8634H371.185V85.8287H302.986V84.8634Z" fill="#F2F2F2" />
    <path d="M351.7 76.1748H352.674V85.1045H351.7V76.1748Z" fill="#F2F2F2" />
    <path d="M321.985 76.1748H322.959V85.1045H321.985V76.1748Z" fill="#F2F2F2" />
    <path d="M432.564 190.09H500.762V191.056H432.564V190.09Z" fill="#F2F2F2" />
    <path d="M481.277 181.401H482.251V190.331H481.277V181.401Z" fill="#F2F2F2" />
    <path d="M451.562 181.401H452.536V190.331H451.562V181.401Z" fill="#F2F2F2" />
    <path d="M148.078 160.646C90.2357 160.646 43.345 114.183 43.345 56.8676C43.345 -0.447487 90.2357 -46.9105 148.078 -46.9105C205.921 -46.9105 252.812 -0.447487 252.812 56.8676C252.812 114.183 205.921 160.646 148.078 160.646Z" fill="#D2D8DD" />
    <path d="M468.65 111.278L469.598 111.503L445.98 209.085L445.033 208.859L468.65 111.278Z" fill="#2F2E41" />
    <path d="M362.66 177.781C362.66 177.781 342.688 185.987 349.021 190.814C355.353 195.641 368.506 185.022 368.019 183.574C367.532 182.126 369.967 178.747 369.967 178.747L362.66 177.781Z" fill="#9F616A" />
    <path d="M380.197 113.101L373.865 118.894L372.403 135.788L367.532 153.647C367.532 153.647 359.251 170.541 360.712 173.92C362.173 177.299 359.251 178.264 359.251 178.264L370.455 182.609C370.455 182.609 382.633 169.093 382.633 166.197C382.633 163.301 380.197 113.101 380.197 113.101Z" fill="#9FCCF3" />
    <path opacity="0.1" d="M380.197 113.101L373.865 118.894L372.403 135.788L367.532 153.647C367.532 153.647 359.251 170.541 360.712 173.92C362.173 177.299 359.251 178.264 359.251 178.264L370.455 182.609C370.455 182.609 382.633 169.093 382.633 166.197C382.633 163.301 380.197 113.101 380.197 113.101Z" fill="#1C3E55" />
    <path d="M384.093 178.747L380.683 182.609C380.683 182.609 310.049 191.297 308.587 204.812C307.126 218.327 296.896 282.042 302.742 283.973C308.587 285.904 323.688 293.144 323.688 289.283C323.688 285.421 333.431 232.325 331.483 222.672C331.483 222.672 415.756 212.053 417.705 199.985C419.653 187.918 415.756 182.609 415.756 182.609L384.093 178.747Z" fill="#1C3E55" />
    <path opacity="0.3" d="M384.093 178.747L380.683 182.609C380.683 182.609 310.049 191.297 308.587 204.812C307.126 218.327 296.896 282.042 302.742 283.973C308.587 285.904 323.688 293.144 323.688 289.283C323.688 285.421 333.431 232.325 331.483 222.672C331.483 222.672 415.756 212.053 417.705 199.985C419.653 187.918 415.756 182.609 415.756 182.609L384.093 178.747Z" fill="#242A2E" />
    <path d="M413.808 76.4167C413.808 76.4167 410.398 92.828 417.705 94.2761C425.012 95.7242 408.45 105.378 408.45 105.378L397.733 111.17L389.939 103.447C389.939 103.447 397.002 89.2079 391.644 78.5888C386.285 67.9696 413.808 76.4167 413.808 76.4167Z" fill="#9F616A" />
    <path d="M389.939 103.447L397.733 111.17L408.45 105.378C408.45 105.378 425.012 95.7242 417.705 94.2761C413.029 93.359 412.736 86.2152 413.126 81.2435C413.272 79.6024 413.467 78.0095 413.808 76.4167C413.808 76.4167 386.285 67.9696 391.644 78.5888C392.472 80.2299 393.007 81.9676 393.3 83.8018C395.005 93.3107 389.939 103.447 389.939 103.447Z" fill="#9F616A" />
    <path opacity="0.1" d="M391.644 78.5888C392.472 80.2299 393.008 81.9676 393.3 83.8018C395.736 85.2499 397.343 84.8637 400.412 84.8637C404.942 84.8637 406.745 79.1197 409.668 76.1753C409.911 73.424 413.808 76.4167 413.808 76.4167C413.808 76.4167 386.285 67.9696 391.644 78.5888Z" fill="black" />
    <path d="M401.63 84.622C392.752 84.622 385.555 77.4905 385.555 68.6933C385.555 59.8961 392.752 52.7645 401.63 52.7645C410.508 52.7645 417.706 59.8961 417.706 68.6933C417.706 77.4905 410.508 84.622 401.63 84.622Z" fill="#9F616A" />
    <path d="M373.863 118.893C373.863 118.893 376.298 136.27 377.76 142.545C379.221 148.819 381.17 177.781 382.144 181.642C383.118 185.504 388.964 186.469 400.655 185.021C401.386 184.925 402.116 184.876 402.847 184.876C410.057 184.635 418.289 187.338 425.889 189.414C430.273 190.62 434.462 191.634 438.116 191.779C443.669 192.02 445.276 185.938 445.13 179.325C444.935 173.195 443.182 166.582 441.525 164.266C438.554 160.066 441.477 122.465 440.405 110.06C440.259 108.177 439.967 106.874 439.577 106.343C436.654 102.481 417.656 92.8276 415.513 93.2138C413.369 93.5999 395.248 104.895 395.248 104.895C390.864 104.895 391.01 100.164 391.01 100.164C391.01 100.164 387.941 105.86 382.095 107.308C376.25 108.756 373.863 118.893 373.863 118.893Z" fill="#9FCCF3" />
    <path opacity="0.1" d="M402.897 184.877C402.8 186.711 407.817 190.91 409.474 193.71C410.399 195.255 417.365 193.227 425.987 189.414C432.612 186.47 439.042 183.091 445.229 179.326C445.034 173.196 443.28 166.583 441.624 164.266C438.653 160.067 441.576 122.465 440.504 110.06C440.26 109.915 439.968 109.819 439.676 109.722H433.83C413.858 118.893 436.753 158.474 436.753 158.474C436.753 158.474 406.551 183.091 403.628 184.056C403.19 184.153 402.897 184.442 402.897 184.877Z" fill="black" />
    <path d="M404.115 61.2602C404.115 61.2602 403.433 51.6064 394.713 55.5162C385.993 59.426 386.578 48.5655 389.209 46.683C391.839 44.8005 391.742 44.2695 401.387 45.5728C411.032 46.8761 429.689 49.0482 423.649 68.2109C417.608 87.3737 412.104 82.4502 412.104 82.4502C412.104 82.4502 416.926 65.2182 412.055 68.5005L407.184 71.7828L404.602 71.2519L404.115 61.2602Z" fill="#2F2E41" />
    <path opacity="0.4" d="M473.531 89.9801C467.639 89.9801 462.863 85.2474 462.863 79.4093C462.863 73.5711 467.639 68.8384 473.531 68.8384C479.423 68.8384 484.2 73.5711 484.2 79.4093C484.2 85.2474 479.423 89.9801 473.531 89.9801Z" fill="#3A8DDE" />
    <path d="M417.122 47.5038L413.517 46.828L409.913 66.2803L415.661 67.3422L418.876 50.0137C419.071 48.8553 418.291 47.7451 417.122 47.5038Z" fill="#3A8DDE" />
    <path d="M412.103 77.6231C408.068 77.6231 404.796 74.3815 404.796 70.3828C404.796 66.3841 408.068 63.1425 412.103 63.1425C416.139 63.1425 419.41 66.3841 419.41 70.3828C419.41 74.3815 416.139 77.6231 412.103 77.6231Z" fill="#3A8DDE" />
    <path d="M412.103 74.7282C409.682 74.7282 407.719 72.7832 407.719 70.384C407.719 67.9848 409.682 66.0398 412.103 66.0398C414.525 66.0398 416.488 67.9848 416.488 70.384C416.488 72.7832 414.525 74.7282 412.103 74.7282Z" fill="#F2F2F2" />
    <path d="M412.103 71.831C411.296 71.831 410.642 71.1827 410.642 70.383C410.642 69.5833 411.296 68.9349 412.103 68.9349C412.91 68.9349 413.565 69.5833 413.565 70.383C413.565 71.1827 412.91 71.831 412.103 71.831Z" fill="#3A8DDE" />
    <path d="M137.605 18.2522V61.6942H201.371L213.111 75.6922L211.796 61.6942H217.495V18.2522H137.605Z" fill="#3A8DDE" />
    <path opacity="0.1" d="M137.605 33.2162H166.346V61.6948H137.605V33.2162Z" fill="black" />
    <path d="M160.013 39.4907H80.1234V82.9327H85.8716L84.5076 96.9307L96.2962 82.9327H160.013V39.4907Z" fill="#1C3E55" />
    <path opacity="0.1" d="M212.623 82.6915C202.938 82.6915 195.087 81.9351 195.087 81.0021C195.087 80.069 202.938 79.3126 212.623 79.3126C222.309 79.3126 230.16 80.069 230.16 81.0021C230.16 81.9351 222.309 82.6915 212.623 82.6915Z" fill="black" />
    <path opacity="0.1" d="M84.5069 105.619C73.4765 105.619 64.5345 104.755 64.5345 103.689C64.5345 102.622 73.4765 101.758 84.5069 101.758C95.5374 101.758 104.479 102.622 104.479 103.689C104.479 104.755 95.5374 105.619 84.5069 105.619Z" fill="black" />
    <path d="M439.14 188.4C439.14 188.4 439.14 216.879 427.449 217.844C415.757 218.81 373.864 224.119 373.864 224.119C373.864 224.119 371.428 271.423 367.044 286.869C362.66 302.315 366.557 303.28 362.66 304.246C358.763 305.211 342.201 301.832 342.688 298.453C343.175 295.075 345.123 209.639 345.123 209.639C345.123 209.639 340.739 191.297 399.195 182.608L439.14 188.4Z" fill="#1C3E55" />
    <path d="M406.453 181.449C406.453 181.449 375.082 182.463 380.587 186.132C386.091 189.8 410.448 193.227 410.935 188.4C411.422 183.573 406.453 181.449 406.453 181.449Z" fill="#9F616A" />
    <path d="M433.781 106.825H439.627C439.627 106.825 444.985 108.274 449.37 117.927C453.754 127.581 469.829 157.508 455.702 169.092C441.575 180.677 411.373 194.192 409.425 190.813C407.476 187.434 400.656 182.125 403.579 181.159C406.502 180.194 436.704 155.577 436.704 155.577C436.704 155.577 413.809 115.997 433.781 106.825Z" fill="#9FCCF3" />
    <path d="M407.701 74.8018C405.721 76.1105 400.573 78.7279 395.821 78.7279" stroke="#3A8DDE" strokeLinecap="round" />
  </g>
</svg>